<?xml version="1.0" standalone="no"?>
<!DOCTYPE svg PUBLIC "-//W3C//DTD SVG 1.1//EN" "http://www.w3.org/Graphics/SVG/1.1/DTD/svg11.dtd">
<svg xmlns="http://www.w3.org/2000/svg">
<metadata>Copyright (C) 2025 by original authors @ fontello.com</metadata>
<defs>
<font id="hanbazar-icons" horiz-adv-x="1000" >
<font-face font-family="hanbazar-icons" font-weight="400" font-stretch="normal" units-per-em="1000" ascent="850" descent="-150" />
<missing-glyph horiz-adv-x="1000" />
<glyph glyph-name="attention-circled" unicode="&#xe800;" d="M429 779q116 0 215-58t156-156 57-215-57-215-156-156-215-58-216 58-155 156-58 215 58 215 155 156 216 58z m71-696v106q0 8-5 13t-12 5h-107q-8 0-13-5t-6-13v-106q0-8 6-13t13-6h107q7 0 12 6t5 13z m-1 192l10 346q0 7-6 10-5 5-13 5h-123q-8 0-13-5-6-3-6-10l10-346q0-6 5-10t14-4h103q8 0 13 4t6 10z" horiz-adv-x="857.1" />

<glyph glyph-name="lock" unicode="&#xe801;" d="M640 476q20 0 40-19t20-41l0-390q0-48-48-66l-60-18q-42-16-96-16l-290 0q-56 0-98 16l-60 18q-48 18-48 66l0 390q0 22 15 41t35 19l100 0 0 70q0 110 51 170t149 60 149-60 51-170l0-70 90 0z m-390 90l0-90 200 0 0 90q0 52-27 81t-73 29-73-29-27-81z" horiz-adv-x="700" />

<glyph glyph-name="lock-open" unicode="&#xe802;" d="M640 450q20 0 40-20t20-40l0-390q0-20-14-39t-34-25l-60-20q-52-16-96-16l-290 0q-46 0-98 16l-60 20q-20 6-34 25t-14 39l0 390q0 22 15 41t35 19l400 0 0 140q0 110-100 110t-100-110l0-40-100 0 0 20q0 110 51 170t149 60q200 0 200-230l0-120 90 0z" horiz-adv-x="700" />

<glyph glyph-name="attention" unicode="&#xe803;" d="M957-24q10-16 0-34-10-16-30-16l-892 0q-18 0-28 16-13 18-2 34l446 782q8 18 30 18t30-18z m-420 50l0 100-110 0 0-100 110 0z m0 174l0 300-110 0 0-300 110 0z" horiz-adv-x="962" />

<glyph glyph-name="bell" unicode="&#xe804;" d="M632 426q16-34 40-52t45-22 44-23 35-55q22-62-74-161t-252-157q-164-58-297-45t-155 75q-20 54 12 111t18 111q-56 192-47 300t113 192q26 22 29 51t29 39q24 8 46-12t56-18q132 2 198-66t160-268z m-186-404q88 32 159 85t100 91 25 50q-8 22-49 33t-124 1-187-48q-102-38-173-87t-94-84-17-53q4-12 50-22t134-4 176 38z m-62 174q8 2 21 7t17 7l2-2q14-40-17-83t-89-63q-96-36-152 14 78 68 218 120z" horiz-adv-x="800" />

<glyph glyph-name="pencil" unicode="&#xe805;" d="M718 680q32-32 47-64t15-48l0-16-252-252-290-288-238-52 50 240 290 288 252 252q54 12 126-60z m-494-640l24 24q-2 44-52 94-22 22-45 35t-35 13l-14 2-22-24-18-80q28-16 46-34 24-24 36-48z" horiz-adv-x="780" />

<glyph glyph-name="layout" unicode="&#xe806;" d="M170 650q80 0 80-80l0-90q0-80-80-80l-90 0q-80 0-80 80l0 90q0 80 80 80l90 0z m350 0q80 0 80-80l0-90q0-80-80-80l-90 0q-80 0-80 80l0 90q0 80 80 80l90 0z m-350-350q80 0 80-80l0-90q0-80-80-80l-90 0q-80 0-80 80l0 90q0 80 80 80l90 0z m350 0q80 0 80-80l0-90q0-80-80-80l-90 0q-80 0-80 80l0 90q0 80 80 80l90 0z" horiz-adv-x="600" />

<glyph glyph-name="check" unicode="&#xe807;" d="M249 0q-34 0-56 28l-180 236q-16 24-12 52t26 46 51 14 47-28l118-154 296 474q16 24 43 30t53-8q24-16 30-43t-8-53l-350-560q-20-32-56-32z" horiz-adv-x="667" />

<glyph glyph-name="cancel" unicode="&#xe808;" d="M452 194q18-18 18-43t-18-43q-18-16-43-16t-43 16l-132 152-132-152q-18-16-43-16t-43 16q-16 18-16 43t16 43l138 156-138 158q-16 18-16 43t16 43q18 16 43 16t43-16l132-152 132 152q18 16 43 16t43-16q18-18 18-43t-18-43l-138-158z" horiz-adv-x="470" />

<glyph glyph-name="minus" unicode="&#xe809;" d="M550 400q30 0 30-50t-30-50l-520 0q-30 0-30 50t30 50l520 0z" horiz-adv-x="580" />

<glyph glyph-name="forward" unicode="&#xe80a;" d="M540 252q-210 0-332-45t-208-197q4 20 13 53t50 117 96 148 156 117 225 53l0 192 360-322-360-334 0 218z" horiz-adv-x="900" />

<glyph glyph-name="reply" unicode="&#xe80b;" d="M900 10q-86 152-208 197t-330 45l0-218-362 334 362 322 0-192q90 0 168-27t131-70 96-95 69-104 44-95 24-69z" horiz-adv-x="900" />

<glyph glyph-name="briefcase" unicode="&#xe80c;" d="M456 326l0-100-456 0q8 226 10 292 4 108 100 108l160 0q16 26 37 67t23 45q14 26 23 32t37 6l222 0q26 0 36-7t22-31q18-32 60-112l160 0q96 0 100-108l10-292-454 0 0 100-90 0z m-74 354l-28-54 292 0-28 54q-14 26-42 26l-152 0q-28 0-42-26z m164-604l0 100 430 0q-6-88-10-166-6-84-90-84l-750 0q-90 0-90 84l-10 166 430 0 0-100 90 0z" horiz-adv-x="1000" />

<glyph glyph-name="suitcase" unicode="&#xe80d;" d="M900 650q42 0 71-30t29-70l0-550q0-42-29-71t-71-29l-50 0 0 750 50 0z m-900-100q0 40 30 70t70 30l50 0 0-750-50 0q-40 0-70 29t-30 71l0 550z m670 204l0-104 110 0 0-750-560 0 0 750 110 0 0 104q98 46 170 46t170-46z m-60-104l0 66q-52 24-110 24-54 0-110-24l0-66 220 0z" horiz-adv-x="1000" />

<glyph glyph-name="megaphone" unicode="&#xe80e;" d="M792 500q58-138 67-258t-39-140q-28-12-61 3t-65 40-99 41-149 8q-28-4-42-19t-6-37q22-56 46-108 4-10 24-22t24-20q14-34-22-46-50-22-102-40-30-10-54 42-32 76-58 132-6 12-34 17t-46 31q-30-10-38-14-34-12-74 12t-54 60q-17 32-5 79t43 61q126 52 213 108t124 103 59 92 25 78 15 59 36 36q48 20 130-70t142-228z m-28-300q8 4 10 38t-11 98-41 128q-28 66-67 123t-67 84-36 23-10-42 10-105 40-133 68-119 68-76 36-19z" horiz-adv-x="860" />

<glyph glyph-name="logout" unicode="&#xe80f;" d="M502 0l0 100 98 0 0-100q0-40-29-70t-71-30l-400 0q-40 0-70 30t-30 70l0 700q0 42 30 71t70 29l400 0q42 0 71-29t29-71l0-150-98 0 0 150-402 0 0-700 402 0z m398 326l-198-196 0 120-450 0 0 150 450 0 0 120z" horiz-adv-x="900" />

<glyph glyph-name="login" unicode="&#xe810;" d="M800 800q42 0 71-29t29-71l0-700q0-40-29-70t-71-30l-450 0q-40 0-69 30t-29 70l0 100 98 0 0-100 450 0 0 700-450 0 0-150-98 0 0 150q0 42 29 71t69 29l450 0z m-350-670l0 120-450 0 0 150 450 0 0 120 200-194z" horiz-adv-x="900" />

<glyph glyph-name="back" unicode="&#xe811;" d="M750 540q40 0 70-29t30-71l0-290q0-40-30-70t-70-30l-690 0 0 140 650 0 0 210-500 0 0-110-210 180 210 180 0-110 540 0z" horiz-adv-x="850" />

<glyph glyph-name="help" unicode="&#xe812;" d="M494 740q86-62 86-184 0-64-42-124-12-20-88-80l-46-30q-40-34-48-60-6-16-8-44 0-14-16-14l-128 0q-16 0-16 12 4 98 28 124 16 22 48 48t56 42l24 14q22 16 34 34 28 44 28 70 0 40-26 78-28 36-92 36-68 0-94-44-28-42-28-92l-166 0q6 162 114 232 70 42 166 42 130 0 214-60z m-216-636q44 0 73-30t27-74q-2-46-32-73t-74-25q-44 0-73 29t-27 75 32 73 74 25z" horiz-adv-x="580" />

<glyph glyph-name="user" unicode="&#xe813;" d="M313 793q107 0 183-77t77-183-77-184-183-76-184 76-76 184 76 183 184 77z m-313-782q0 83 86 146t227 63q136 0 224-63t88-146q0-41-89-72t-223-32q-140 0-227 32t-86 72z" horiz-adv-x="625" />

<glyph glyph-name="heart-filled" unicode="&#xe814;" d="M456 487q0 95-67 161t-161 67-162-67-66-161q0-137 91-229 37-36 128-104t164-118l73-50q282 190 364 272 91 92 91 229 0 95-66 161t-161 67-161-67-67-161z" horiz-adv-x="911" />

<glyph glyph-name="th-large" unicode="&#xe815;" d="M0 663q0 65 46 110t110 46l104 0q65 0 111-46t45-110l0-104q0-65-45-111t-111-45l-104 0q-65 0-110 45t-46 111l0 104z m521 0q0 65 46 110t111 46l103 0q65 0 111-46t46-110l0-104q0-65-46-111t-111-45l-103 0q-65 0-111 45t-46 111l0 104z m-521-521q0 65 46 110t110 46l104 0q65 0 111-46t45-110l0-104q0-65-45-111t-111-46l-104 0q-65 0-110 46t-46 111l0 104z m521 0q0 65 46 110t111 46l103 0q65 0 111-46t46-110l0-104q0-65-46-111t-111-46l-103 0q-65 0-111 46t-46 111l0 104z" horiz-adv-x="938" />

<glyph glyph-name="user-add" unicode="&#xe816;" d="M573 533q0-108-77-184t-183-76-184 76-76 184 76 183 184 77 183-77 77-183z m-260-626q-140 0-227 32t-86 72q0 83 86 146t227 63q136 0 224-63t88-146q0-41-89-72t-223-32z m625 469q21 0 36-15t16-37-16-36-36-15l-104 0 0-105q0-22-16-37t-37-15-37 15-15 37l0 105-104 0q-21 0-37 15t-15 36 15 37 37 15l104 0 0 104q0 21 15 37t37 16 37-16 16-37l0-104 104 0z" horiz-adv-x="990" />

<glyph glyph-name="user-delete" unicode="&#xe817;" d="M938 273l-313 0q-21 0-37 15t-15 36 15 37 37 15l313 0q21 0 36-15t16-37-16-36-36-15z m-625 520q107 0 183-77t77-183-77-184-183-76-184 76-76 184 76 183 184 77z m0-573q136 0 224-63t88-146q0-41-89-72t-223-32q-140 0-227 32t-86 72q0 83 86 146t227 63z" horiz-adv-x="990" />

<glyph glyph-name="home" unicode="&#xe818;" d="M521 819q322-279 500-429 20-16 20-40 0-21-15-37t-36-15l-105 0 0-364q0-21-15-37t-36-16l-156 0q-22 0-37 16t-16 37l0 208-209 0 0-208q0-21-15-37t-36-16l-156 0q-21 0-37 16t-16 37l0 364-103 0q-22 0-37 15t-16 37 19 40z" horiz-adv-x="1041" />

<glyph glyph-name="flag-filled" unicode="&#xe819;" d="M640 693q25 25 57 11t32-47l0-418q0-21-15-36-80-80-193-80t-193 80q-47 46-110 50t-114-36l0-238q0-21-15-37t-36-15-37 15-16 37l0 678q0 21 15 36 80 80 193 80t193-80q50-50 120-50t119 50z" horiz-adv-x="729" />

<glyph glyph-name="pin" unicode="&#xe81a;" d="M573 37q0-23-15-38t-37-15q-21 0-37 16l-169 169-315-236 236 315-168 169q-24 23-12 56 14 32 48 32 157 0 270 57 90 45 151 171 9 24 36 32t50-13l208-209q21-23 14-50t-32-36q-127-63-172-152-56-110-56-268z" horiz-adv-x="834" />

<glyph glyph-name="lock-filled" unicode="&#xe81b;" d="M625 480q43 0 73-31t31-73l0-365q0-42-31-73t-73-31l-521 0q-44 0-74 31t-30 73l0 365q0 43 30 73t74 31l52 0 0 105q0 86 62 147t147 61 147-61 61-147l0-105 52 0z m-260-431q28 0 48 20t20 47-20 48-48 20-47-20-20-48 20-47 47-20z m104 380l0 156q0 44-31 74t-73 30q-44 0-74-31t-31-73l0-156 209 0z" horiz-adv-x="729" />

<glyph glyph-name="lock-open-filled" unicode="&#xe81c;" d="M678 793q86 0 146-61t61-147l0-156q0-21-15-37t-36-16-37 16-16 37l0 156q0 44-30 74t-73 30q-44 0-75-31t-30-73l0-105 52 0q43 0 73-31t31-73l0-365q0-42-31-73t-73-31l-521 0q-44 0-74 31t-30 73l0 365q0 43 30 73t74 31l156 0 0-51 209 0 0 156q0 86 61 147t148 61z m-313-744q28 0 48 20t20 47-20 48-48 20-47-20-20-48 20-47 47-20z" horiz-adv-x="885" />

<glyph glyph-name="export" unicode="&#xe81d;" d="M209 141q0 60 9 119t31 119 57 105 90 73 125 28l0 156q0 22 17 37t42 15q28 0 46-19l312-320q-210-211-312-318-17-20-46-20-25 0-42 15t-17 37l0 156q-178-4-312-208l0 25z m-156-234q-22 0-37 16t-16 37l0 729q0 21 16 37t37 15l416 0 0-105-365 0 0-625 625 0 0 157q65 67 105 107l0-315q0-21-16-37t-37-16l-728 0z" horiz-adv-x="938" />

<glyph glyph-name="record" unicode="&#xe81e;" d="M313 663q130 0 221-92t91-221-91-221-221-91-222 91-91 221 91 221 222 92z" horiz-adv-x="625" />

<glyph glyph-name="warning" unicode="&#xe81f;" d="M991 186q64-107 12-199-52-93-177-93l-625 0q-126 0-177 93-53 92 11 199l309 513q62 107 170 107 106 0 169-107z m-477-112q34 0 57 23t23 57-23 58-57 24-58-24-23-58 23-57 58-23z m85 387q5 13 5 32 0 38-26 64t-64 27-65-27-26-64q0-17 6-34l72-178q5-9 13-9t11 9q74 178 74 180z" horiz-adv-x="1026" />

<glyph glyph-name="location" unicode="&#xe820;" d="M711 725q122-120 122-290t-122-290l-295-290-293 290q-123 120-123 290t123 290 295 120 293-120z m-295-426q55 0 93 37 39 39 39 92t-39 92-93 39q-52 0-91-39t-39-92 39-92q38-37 91-37z" horiz-adv-x="833" />

<glyph glyph-name="ok" unicode="&#xe821;" d="M352-10l-334 333 158 160 176-174 400 401 159-160z" horiz-adv-x="928" />

<glyph glyph-name="cancel-1" unicode="&#xe822;" d="M799 116l-156-157-234 235-235-235-156 157 234 234-234 234 156 157 235-235 234 235 156-157-234-234z" horiz-adv-x="817" />

<glyph glyph-name="minus-1" unicode="&#xe823;" d="M18 239l0 223 893 0 0-223-893 0z" horiz-adv-x="928" />

<glyph glyph-name="chart-pie" unicode="&#xe824;" d="M402 256l-280-280q-104 123-104 281t104 278z m172 426q144-21 241-130t96-255q0-164-115-279t-280-115q-122 0-229 79l287 291 0 409z m-110-331l-320 320q143 115 320 126l0-446z" horiz-adv-x="928" />

<glyph glyph-name="key-inv" unicode="&#xe825;" d="M633 797q115 0 197-82t81-197-81-197-198-82q-28 0-51 5l-5-5 0-112-112 0 0-111-111 0 0-113-335 0 0 224 340 340q-5 23-5 52 0 115 82 196t198 82z m0-335q22 0 39 16t16 41-16 39-40 16q-24 0-40-17t-16-38q0-24 17-41t40-16z" horiz-adv-x="928" />

<glyph glyph-name="right-fat" unicode="&#xe826;" d="M0 198v305q0 21 16 37t37 15h205v147q0 40 22 53t55-8l582-361q20-15 20-35 0-10-5-18t-11-13l-4-4-582-364q-32-21-55-7t-22 53v147h-205q-21 0-37 16t-16 37z" horiz-adv-x="937.5" />

<glyph glyph-name="left-fat" unicode="&#xe827;" d="M0 350q0 9 5 17t11 14l5 4 581 362q32 21 55 8t22-54v-146h205q21 0 37-16t16-37v-304q0-22-16-38t-37-15h-205v-147q0-40-22-53t-55 7l-581 363q-21 14-21 35z" horiz-adv-x="937.5" />

<glyph glyph-name="down-fat" unicode="&#xe828;" d="M5 538q13 23 53 23h147v205q0 21 16 37t37 15h304q22 0 38-15t15-37v-205h147q40 0 53-23t-7-54l-363-582q-1-2-5-6t-12-9-18-6-18 5-13 11l-4 5-363 582q-21 32-7 54z" horiz-adv-x="820.3" />

<glyph glyph-name="up-fat" unicode="&#xe829;" d="M5 162q-14 22 7 54l363 582q14 20 34 20 10 0 19-5t12-10l5-5 362-582q21-32 8-54t-54-23h-147v-205q0-21-15-37t-37-16h-305q-21 0-37 16t-15 37v205h-147q-40 0-53 23z" horiz-adv-x="819.3" />

<glyph glyph-name="attention-1" unicode="&#xe82a;" d="M0 350q0 95 37 182t100 149 149 100 183 37q95 0 181-37t150-100 100-149 37-182q0-95-37-182t-100-150-150-100-181-37q-96 0-183 37t-149 100-100 150-37 182z m387 196l27-244q2-21 17-35t36-17q24-3 43 12t21 40l27 244v17q-4 35-31 58t-63 19-58-31-19-63z m12-411q0-30 22-52t51-21 52 21 22 52-22 52q-20 20-52 20t-51-20q-22-22-22-52z" horiz-adv-x="937.5" />

<glyph glyph-name="help-circled" unicode="&#xe82b;" d="M0 350q0 95 37 182t100 149 149 100 183 37q95 0 182-37t149-100 100-149 37-182-37-182-100-150-149-100-182-37q-96 0-183 37t-149 100-100 150-37 182z m333 175l31-101q46 29 92 29 50 0 50-22 0-5-2-8t-6-8-7-5-10-6-9-4l-40-21q-22-12-28-25t-6-37v-38h117v16q0 7 0 10t3 6 6 6q1 0 11 4t17 9 19 10 18 14q19 16 29 36t11 56q0 49-42 83t-106 34q-85 0-148-38z m48-333q0-32 21-49t55-17q33 0 54 17t20 49-20 49-54 18q-35 0-55-18t-21-49z" horiz-adv-x="937.5" />

<glyph glyph-name="thumbs-up" unicode="&#xe82c;" d="M0-63l0 552q0 16 10 25t25 11l147 0q33 0 35-36l0-552q0-14-10-24t-25-12l-147 0q-13 0-23 10t-12 26z m277 27l0 500q0 22 14 35t37 16l113 0 114 252q13 31 41 31 37 2 93-61 18-25 25-55t6-48-9-64-10-55l248 0q26 0 38-17t11-44l-70-429q-12-42-53-74t-88-38l-459 0q-21 0-35 14t-16 37z" horiz-adv-x="998" />

<glyph glyph-name="thumbs-down" unicode="&#xe82d;" d="M0 212l0 552q2 34 35 34l147 0q35-2 35-34l0-552q-2-16-12-26t-23-10l-147 0q-13 2-24 12t-11 24z m277 23l0 502q2 21 16 35t33 14l459 0q35-2 70-22 55-33 71-88l70-429q2-26-13-43t-36-18l-248 0q8-58 22-117 6-90-94-158-20-14-43-6-20 6-31 29l-112 252-115 0q-21 2-35 16t-14 33z" horiz-adv-x="996" />

<glyph glyph-name="plus" unicode="&#xe82e;" d="M0 209l0 282 359 0 0 359 282 0 0-359 359 0 0-282-359 0 0-359-282 0 0 359-359 0z" horiz-adv-x="1000" />

<glyph glyph-name="minus-2" unicode="&#xe82f;" d="M0 209l0 282 1000 0 0-282-1000 0z" horiz-adv-x="1000" />

<glyph glyph-name="cancel-2" unicode="&#xe830;" d="M0 71l279 279-279 279 221 221 279-279 279 279 221-221-279-279 279-279-221-221-279 279-279-279z" horiz-adv-x="1000" />

<glyph glyph-name="ok-1" unicode="&#xe831;" d="M0 260l162 162 166-164 508 510 164-164-510-510-162-162-162 164z" horiz-adv-x="1000" />

<glyph glyph-name="tag" unicode="&#xe832;" d="M0 483l0 287q2 31 24 54t52 22l287 0q88-6 133-55l426-472q19-28 19-58t-19-52l-334-334q-25-21-57-21t-52 21l-424 475q-55 64-55 133z m125 164q2-31 23-52t51-20q32 0 52 22t21 50q0 33-23 54t-50 20q-33-2-53-23t-21-51z" horiz-adv-x="941" />

<glyph glyph-name="tags" unicode="&#xe833;" d="M0 460l0 240q2 27 21 46t43 19l241 0q43 0 88-28l377-414q17-23 17-48t-17-44l-280-277q-21-18-47-19t-43 19l-355 397q-45 54-45 109z m104 138q0-25 17-42 22-20 46-19t42 19q18 19 18 44t-18 43q-20 18-45 17t-43-17q-17-21-17-45z m316 165l92 0q72-4 109-45l356-397q17-21 17-48t-17-44l-280-277q-60-35-95 8l271 271q18 22 18 47t-18 45l-318 356q-24 31-71 56t-64 28z" horiz-adv-x="994" />

<glyph glyph-name="lock-2" unicode="&#xe834;" d="M0-150l0 578 139 0q-2 166 25 231 39 88 116 139t169 52q94 0 172-54t115-137q26-59 26-121l0-110 150 0 0-578-912 0z m322 578l256 0 0 112q-2 52-38 88t-91 38q-52 2-87-34t-40-94l0-110z" horiz-adv-x="912" />

<glyph glyph-name="lock-open-2" unicode="&#xe835;" d="M0-150l0 559 152 0 0 138q2 127 88 215 41 39 96 64t119 24q123-2 211-88 86-88 90-209l-178 0q-2 47-37 82-37 35-86 37-53-2-88-37-37-39-37-88l0-138 553 0 0-559-883 0z" horiz-adv-x="883" />

<glyph glyph-name="indent-left" unicode="&#xe836;" d="M0-66l0 147 1000 0 0-147-1000 0z m0 229l0 375 281-188z m0 457l0 146 1000 0 0-146-1000 0z m422-457l0 146 578 0 0-146-578 0z m0 228l0 147 578 0 0-147-578 0z" horiz-adv-x="1000" />

<glyph glyph-name="off" unicode="&#xe837;" d="M0 350q0 207 147 354l101-102q-105-103-105-252t104-253 253-104 253 104 104 253-105 252l102 102q146-147 146-354t-146-354-354-146-353 146-147 354z m428-78l0 578 144 0 0-578-144 0z" horiz-adv-x="1000" />

<glyph glyph-name="ok-circle" unicode="&#xe838;" d="M500 850q136 0 251-67t182-182 67-251-67-251-182-182-251-67-251 67-182 182-67 251 67 251 182 182 251 67z m-240-447l-54-53q71-71 129-133t81-90l22-26q8 13 22 36t57 85 83 119 95 119 99 104q-18 35-36 35-10-6-32-22t-113-97-211-201z" horiz-adv-x="1000" />

<glyph glyph-name="lock-3" unicode="&#xe839;" d="M582 437v-356q0-32-32-32h-518q-32 0-32 32v356q0 10 3 17t7 10 12 5 13 2 16 0 14-1v127h1q9 87 74 141t153 53 151-62 71-152h1l2-107q4 0 15 1t15 0 13-2 12-5 6-10 3-17z m-161 162q0 51-37 74t-91 23q-53 0-92-25t-39-77v-124h259v129z" horiz-adv-x="582" />

<glyph glyph-name="lock-open-3" unicode="&#xe83a;" d="M582 437v-356q0-32-32-32h-518q-32 0-32 32v356q0 33 32 33h389v194q0 51-37 74t-91 23q-53 0-92-25t-39-77v-125h-97v128h1q9 87 74 141t153 53 151-63 71-151h1l2-172q4 0 15 1t15 0 13-2 12-5 6-10 3-17z" horiz-adv-x="582" />

<glyph glyph-name="tag-1" unicode="&#xe83b;" d="M1000 714v-270l-595-595-405 405 595 595h270z m-160-160q28 28 28 68t-28 67-67 28-68-28-28-67 28-68 68-28 67 28z" horiz-adv-x="1000" />

<glyph glyph-name="briefcase-1" unicode="&#xe83c;" d="M917 642h-209v41c0 46-37 84-83 84h-250c-46 0-83-38-83-84v-41h-209c-46 0-83-38-83-84v-125c0-46 37-83 83-83h334v21c0 11 9 21 21 21h125c11 0 20-10 20-21v-21h334c46 0 83 37 83 83v125c0 46-37 84-83 84z m-292 0h-250v41h250v-41z m363-314c-7 3-15 2-21-2-15-12-32-18-50-18h-334v-62c0-12-9-21-20-21h-125c-12 0-21 9-21 21v62h-334c-17 0-35 6-50 18-6 4-14 5-21 2-7-4-12-11-12-19v-292c0-46 37-84 83-84h834c46 0 83 38 83 84v292c0 8-4 15-12 19z" horiz-adv-x="1000" />

<glyph glyph-name="search" unicode="&#xe83d;" d="M233 225c35-58 84-107 142-142l-204-204c-39-39-102-39-142 0 0 0 0 0 0 0-39 39-39 103 0 142z m369 625c220 0 398-178 398-398s-178-398-398-398-398 178-398 398 178 398 398 398z m0-137c-144 0-261-117-261-261 0-144 117-261 261-261 144 0 261 117 261 261 0 144-117 261-261 261z" horiz-adv-x="1000" />

<glyph glyph-name="task" unicode="&#xe83e;" d="M313 725c0 40 32 73 72 73h230c40 0 73-33 73-73s-33-73-73-73h-230c-40 0-72 33-72 73z m-53 0c0 4-3 7-6 6-38-5-69-16-94-41-25-25-35-56-41-94-4-36-4-82-4-139v-276c0-57 0-103 4-139 6-37 16-69 41-94 25-25 57-36 95-41 36-5 82-5 139-5h213c56 0 102 0 139 5 37 5 69 16 94 41 25 25 36 57 41 94 4 36 4 82 4 139v276c0 57 0 103-4 139-5 38-16 69-41 94-25 25-56 36-94 41-3 1-6-2-6-6 0-69-56-125-125-125h-230c-69 0-125 56-125 125z m73-302c-17 0-31-14-31-31s14-32 31-32h334c17 0 31 14 31 32s-14 31-31 31z m0-208c-17 0-31-14-31-32s14-31 31-31h167c17 0 31 14 31 31s-14 32-31 32z" horiz-adv-x="1000" />

<glyph glyph-name="quote-right-alt" unicode="&#xe83f;" d="M18 685l335 0 0-334-335-335 0 669z m558 0l335 0 0-334-335-335 0 669z" horiz-adv-x="928" />

<glyph glyph-name="transfer-2" unicode="&#xe840;" d="M842 663h-840c3 31 27 55 58 59l703 97c21 3 39-3 55-16 16-14 24-32 24-53z m-435-332h353v92c0 7 4 14 10 17 7 3 14 3 20-1l209-143v165c0 90-73 164-164 164h-834v-581c0-90 73-163 164-163h670c91 0 164 73 164 163v165l-209-142c-3-3-7-4-11-4-3 0-6 1-9 2-6 4-10 10-10 17v93h-353c-11 0-20 8-20 19v118c0 10 9 19 20 19z" horiz-adv-x="1000" />

<glyph glyph-name="quote-left-alt" unicode="&#xe841;" d="M911 16l-335 0 0 335 335 334 0-669z m-558 0l-335 0 0 335 335 334 0-669z" horiz-adv-x="928" />

<glyph glyph-name="traveling" unicode="&#xe842;" d="M205-145c8-7 20-7 28 0 0 0 73 68 132 163 40 64 73 141 73 217 0 121-98 219-219 219s-219-98-219-219c0-76 33-153 73-217 58-95 132-163 132-163z m207 37h-83c-12 0-21-10-21-21s9-21 21-21h83c12 0 21 9 21 21s-9 21-21 21z m167 0c-29 0-57 0-84 0-11 0-20-10-20-21s9-21 20-21h84c11 0 21 9 21 21s-10 21-21 21z m166 0c-27 0-55 0-83 0-11 0-21-10-21-21s10-21 21-21h83c12 0 21 9 21 21s-9 21-21 21z m151 21c-20-13-43-20-68-21-11-1-21-10-20-22 0-11 10-20 22-20 32 1 63 11 89 28 9 6 12 19 6 29s-19 12-29 6z m62 123c0-3 0-6 0-9 0-22-5-43-14-61-5-10-1-23 9-28 10-5 23-1 28 9 12 24 19 51 19 80 0 4 0 8 0 12-1 11-11 20-22 19-12-1-21-10-20-22z m-78 114c22-11 41-27 55-47 6-9 19-11 29-5s12 20 5 29c-18 26-42 47-71 60-10 5-23 1-28-10s0-22 10-27z m-661 179c52 0 94-42 94-94s-42-93-94-93-94 42-94 93 42 94 94 94z m331-142c22-16 48-24 75-24h17c11 0 20 9 20 20s-9 21-20 21h-17c-18 0-36 6-50 17-9 7-22 5-29-4s-5-23 4-30z m175-24h83c12 0 21 9 21 20s-9 21-21 21h-83c-12 0-21-9-21-21s9-20 21-20z m-198 202c-17-21-27-48-27-77 0-6 0-11 1-16 2-12 12-20 23-18 12 1 20 11 18 23 0 3 0 7 0 11 0 19 6 37 18 51 7 9 5 23-4 30-9 7-22 5-29-4z m171 48s-35 0-73 0c-4 0-8-1-12-1-12-1-20-11-19-23s11-20 23-18c2 0 5 0 8 0 38 0 73 0 73 0 12 0 21 9 21 21s-10 21-21 21z m111-37c8-7 20-7 28 0 0 0 58 53 105 126 31 51 58 111 58 171 0 98-80 177-177 177s-177-79-177-177c0-60 26-120 58-171 47-73 105-126 105-126z m14 370c40 0 73-33 73-73s-33-73-73-73c-40 0-73 33-73 73s33 73 73 73z" horiz-adv-x="1000" />

<glyph glyph-name="uzbekistan" unicode="&#xe843;" d="M1000 459h-1000v201c0 10 8 18 17 18h966c9 0 17-8 17-18l0-201 0 0z m-17-437h-966c-9 0-17 8-17 18v201h1000v-201c0-10-8-18-17-18z m-761 492c-36 0-64 29-64 64 0 35 28 64 64 64 0 0 0 0 0 0 2 0 3 2 1 3-11 6-23 9-36 9-43 0-77-35-76-77 0-42 34-76 76-76 13 0 25 4 36 9 2 1 1 4-1 4 0 0 0 0 0 0z m50 18l-3-9-9 0c-1 0-2-2-1-2l7-6-2-8c-1-1 1-2 2-2l7 6 7-6c1 0 2 1 2 2l-3 8 8 6c1 0 0 2-1 2l-9 0-3 9c0 1-2 1-2 0z m63 0l-3-9-9 0c-1 0-1-2 0-2l7-6-3-8c0-1 1-2 2-2l7 6 8-6c1 0 2 1 2 2l-3 8 7 6c1 0 1 2-1 2l-9 0-2 9c-1 1-2 1-3 0z m64 0l-3-9-9 0c-1 0-2-2-1-2l8-6-3-8c-1-1 1-2 2-2l7 6 7-6c1 0 3 1 2 2l-2 8 7 6c1 0 0 2-1 2l-9 0-3 9c0 1-2 1-2 0z m63 0l-2-9-9 0c-2 0-2-2-1-2l7-6-3-8c0-1 1-2 2-2l8 6 7-6c1 0 2 1 2 2l-3 8 7 6c1 0 1 2 0 2l-9 0-3 9c-1 1-2 1-3 0z m64 0l-3-9-9 0c-1 0-2-2-1-2l8-6-3-8c0-1 1-2 2-2l7 6 7-6c1 0 3 1 2 2l-2 8 7 6c1 0 0 2-1 2l-9 0-3 9c0 1-2 1-2 0z m-191 59l-3-9-9 0c-1 0-1-1 0-2l7-5-3-9c0-1 1-2 2-1l7 5 8-5c1-1 2 0 2 1l-3 9 7 5c1 1 1 2-1 2l-9 0-2 9c-1 1-2 1-3 0z m64 0l-3-9-9 0c-1 0-2-1-1-2l8-5-3-9c-1-1 1-2 2-1l7 5 7-5c1-1 3 0 2 1l-2 9 7 5c1 1 0 2-1 2l-9 0-3 9c0 1-2 1-2 0z m63 0l-2-9-9 0c-2 0-2-1-1-2l7-5-3-9c0-1 1-2 2-1l8 5 7-5c1-1 2 0 2 1l-3 9 7 5c1 1 1 2 0 2l-9 0-3 9c-1 1-2 1-3 0z m64 0l-3-9-9 0c-1 0-2-1-1-2l8-5-3-9c0-1 1-2 2-1l7 5 7-5c1-1 3 0 2 1l-2 9 7 5c1 1 0 2-1 2l-9 0-3 9c0 1-2 1-2 0z m-127-59l-3-9-9 0c-1 0-2-2-1-2l8-6-3-8c-1-1 1-2 2-2l7 6 7-6c1 0 3 1 2 2l-2 8 7 6c1 0 0 2-1 2l-9 0-3 9c0 1-2 1-2 0z m0 118l-3-8-9 0c-1 0-2-2-1-3l8-5-3-9c-1-1 1-2 2-1l7 5 7-5c1-1 3 0 2 1l-2 9 7 5c1 1 0 3-1 3l-9 0-3 8c0 1-2 1-2 0z m63-118l-2-9-9 0c-2 0-2-2-1-2l7-6-3-8c0-1 1-2 2-2l8 6 7-6c1 0 2 1 2 2l-3 8 7 6c1 0 1 2 0 2l-9 0-3 9c-1 1-2 1-3 0z m64 0l-3-9-9 0c-1 0-2-2-1-2l8-6-3-8c0-1 1-2 2-2l7 6 7-6c1 0 3 1 2 2l-2 8 7 6c1 0 0 2-1 2l-9 0-3 9c0 1-2 1-2 0z m-64 118l-2-8-9 0c-2 0-2-2-1-3l7-5-3-9c0-1 1-2 2-1l8 5 7-5c1-1 2 0 2 1l-3 9 7 5c1 1 1 3 0 3l-9 0-3 8c-1 1-2 1-3 0z m64 0l-3-8-9 0c-1 0-2-2-1-3l8-5-3-9c0-1 1-2 2-1l7 5 7-5c1-1 3 0 2 1l-2 9 7 5c1 1 0 3-1 3l-9 0-3 8c0 1-2 1-2 0z" horiz-adv-x="1000" />

<glyph glyph-name="bell-1" unicode="&#xe844;" d="M808 145c-63 54-100 131-100 214v116c0 147-109 268-250 288v45c0 23-18 42-41 42-23 0-42-19-42-42v-45c-141-20-250-141-250-288v-116c0-83-36-160-99-214-17-14-26-34-26-55 0-41 33-73 73-73h687c41 0 73 32 73 73 0 21-9 41-25 55z m0 0m-391-295c75 0 138 54 153 125h-306c14-71 77-125 153-125z m0 0" horiz-adv-x="1000" />

<glyph glyph-name="cog" unicode="&#xe845;" d="M571 350q0 59-41 101t-101 42-101-42-42-101 42-101 101-42 101 42 41 101z m286 61v-124q0-7-4-13t-11-7l-104-16q-10-30-21-51 19-27 59-77 6-6 6-13t-5-13q-15-21-55-61t-53-39q-7 0-14 5l-77 60q-25-13-51-21-9-76-16-104-4-16-20-16h-124q-8 0-14 5t-6 12l-16 103q-27 9-50 21l-79-60q-6-5-14-5-8 0-14 6-70 64-92 94-4 5-4 13 0 6 5 12 8 12 28 37t30 40q-15 28-23 55l-102 15q-7 1-11 7t-5 13v124q0 7 5 13t10 7l104 16q8 25 22 51-23 32-60 77-6 7-6 14 0 5 5 12 15 20 55 60t53 40q7 0 15-5l77-60q24 13 50 21 9 76 17 104 3 16 20 16h124q7 0 13-5t7-12l15-103q28-9 51-20l79 59q5 5 13 5 7 0 14-5 72-67 92-95 4-5 4-12 0-7-4-13-9-12-29-37t-30-40q15-28 23-54l102-16q7-1 12-7t4-13z" horiz-adv-x="857.1" />

<glyph glyph-name="play" unicode="&#xe846;" d="M772 333l-741-412q-13-7-22-2t-9 20v822q0 14 9 20t22-2l741-412q13-7 13-17t-13-17z" horiz-adv-x="785.7" />

<glyph glyph-name="apartment" unicode="&#xe847;" d="M81 629h166v-737h-166z m676 0h165v-737h-165z m22 221h-279l-21-500 21-458h279z m-558 0h279v-958h-279z m125-104h59v-146h-59z m249 0h59v-146h-59z m-249-205h59v-145h-59z m249 0h59v-145h-59z m-249-204h59v-146h-59z m249 0h59v-146h-59z m-3-263h-92l-21-132 21-50h92z m-184 0h92v-182h-92z m155-182h58v211h-121l-21-30 21-28h63z m-125 0v153h62v58h-121v-211z m562 17h-500l-12-27 12-32h500z m-1000 0h500v-59h-500z m529 691v146h-29l-19-78 19-68z m-58 146h29v-146h-29z m58-350v145h-29l-19-73 19-72z m-58 145h29v-145h-29z m58-350v146h-29l-19-76 19-70z m-58 146h29v-146h-29z" horiz-adv-x="1000" />

<glyph glyph-name="best-customer-experience" unicode="&#xe848;" d="M196 255h186v40c0 67-54 121-121 121h-140c-67 0-121-54-121-121v-190h196z m59-58h100v-308h-100z m458 35h-40v95c0 55-45 100-100 100-23 0-41-19-41-42v-98l-47-55-71-35v-308l66-39h233c55 0 99 44 99 99v184c0 54-44 99-99 99z m-242 486c53-34 98-79 131-132 34 53 79 98 132 132-53 34-98 79-132 132-33-53-78-98-131-132z m529-211c-53 34-98 79-132 132-34-53-79-98-132-132 53-34 98-79 132-132 34 53 79 98 132 132z" horiz-adv-x="1000" />

<glyph glyph-name="briefcase-2" unicode="&#xe849;" d="M917 642h-209v41c0 46-37 84-83 84h-250c-46 0-83-38-83-84v-41h-209c-46 0-83-38-83-84v-125c0-46 37-83 83-83h334v21c0 11 9 21 21 21h125c11 0 20-10 20-21v-21h334c46 0 83 37 83 83v125c0 46-37 84-83 84z m-292 0h-250v41h250v-41z m363-314c-7 3-15 2-21-2-15-12-32-18-50-18h-334v-62c0-12-9-21-20-21h-125c-12 0-21 9-21 21v62h-334c-17 0-35 6-50 18-6 4-14 5-21 2-7-4-12-11-12-19v-292c0-46 37-84 83-84h834c46 0 83 38 83 84v292c0 8-4 15-12 19z" horiz-adv-x="1000" />

<glyph glyph-name="right-open" unicode="&#xe84a;" d="M618 361l-414-415q-11-10-25-10t-25 10l-93 93q-11 11-11 25t11 25l296 297-296 296q-11 11-11 25t11 25l93 93q10 11 25 11t25-11l414-414q10-11 10-25t-10-25z" horiz-adv-x="714.3" />

<glyph glyph-name="left-open" unicode="&#xe84b;" d="M654 682l-297-296 297-297q10-10 10-25t-10-25l-93-93q-11-10-25-10t-25 10l-414 415q-11 10-11 25t11 25l414 414q10 11 25 11t25-11l93-93q10-10 10-25t-10-25z" horiz-adv-x="714.3" />

<glyph glyph-name="bookmark" unicode="&#xe84c;" d="M650 779q12 0 24-5 19-8 29-23t11-35v-719q0-19-11-35t-29-23q-10-4-24-4-27 0-47 18l-246 236-246-236q-20-19-46-19-13 0-25 5-18 7-29 23t-11 35v719q0 19 11 35t29 23q12 5 25 5h585z" horiz-adv-x="714.3" />

<glyph glyph-name="checklist" unicode="&#xe84d;" d="M369 758c65 89 197 89 262 0 15-20 40-30 65-26 109 16 202-77 186-186-4-25 6-50 26-65 89-65 89-197 0-262-20-15-30-40-26-65 16-109-77-202-186-186-25 4-50-6-65-26-65-89-197-89-262 0-15 20-40 30-65 26-109-16-202 77-186 186 4 25-6 50-26 65-89 65-89 197 0 262 20 15 30 40 26 65-16 109 77 202 186 186 25-4 50 6 65 26z m345-309c17 19 16 49-3 67-20 18-50 16-67-3l-179-191-51 46c-20 17-50 16-67-3-18-19-17-50 3-67l86-78c10-8 22-13 34-12 13 0 25 6 33 15z" horiz-adv-x="1000" />

<glyph glyph-name="tags-1" unicode="&#xe84e;" d="M250 600q0 30-21 51t-50 20-51-20-21-51 21-50 51-21 50 21 21 50z m595-321q0-30-20-51l-274-274q-22-21-51-21-30 0-50 21l-399 399q-21 21-36 57t-15 65v232q0 29 21 50t50 22h233q29 0 65-15t57-36l399-399q20-21 20-50z m215 0q0-30-21-51l-274-274q-22-21-51-21-20 0-33 8t-29 25l262 262q21 21 21 51 0 29-21 50l-399 399q-21 21-57 36t-65 15h125q29 0 65-15t57-36l399-399q21-21 21-50z" horiz-adv-x="1071.4" />

<glyph glyph-name="close-2" unicode="&#xe84f;" d="M843-150c-42 0-82 16-111 46l-232 232-232-232c-61-62-160-62-222-1s-62 161-1 222c1 1 1 1 1 1l232 232-232 232c-61 62-61 161 1 222 61 61 160 61 221 0l232-232 232 232c61 62 160 62 222 1s62-161 1-222c0-1 0-1-1-1l-232-232 232-232c61-61 61-161 0-222-29-29-69-46-111-46z" horiz-adv-x="1000" />

<glyph glyph-name="close" unicode="&#xe850;" d="M853 803c66 67 167-34 100-100l-352-353 352-353c67-66-34-167-100-100l-353 352-353-352c-66-67-167 34-100 100l352 353-352 353c-67 66 34 167 100 100l353-352z" horiz-adv-x="1000" />

<glyph glyph-name="coin" unicode="&#xe851;" d="M500 850c-276 0-500-224-500-500s224-500 500-500 500 224 500 500-224 500-500 500z m144-697c-22-27-51-45-84-54-14-3-21-11-20-26 1-15 0-30 0-44 0-14-7-21-20-21-8 0-17 0-25 0-8 0-15 0-22 0-14 0-21 8-21 22 0 10 0 21 0 32 0 24-1 25-24 28-29 5-58 12-85 25-21 10-23 15-17 37 5 17 9 33 14 49 4 12 7 18 14 18 3 0 8-2 15-5 29-16 61-24 94-29 5 0 11-1 16-1 16 0 31 3 46 10 36 16 42 58 11 84-10 8-23 15-35 20-32 15-66 25-96 44-50 29-81 70-77 130 4 68 42 110 105 133 25 9 25 9 25 36 0 9 0 18 1 27 0 20 4 24 24 24 2 0 4 0 7 0 4 0 8 0 11 0 2 0 4 0 5 0 38 0 38-1 39-43 0-30 0-30 30-35 23-4 45-10 67-20 12-5 16-13 12-26-5-18-10-37-16-55-4-12-7-17-14-17-3 0-8 2-14 5-29 14-60 21-93 21-4 0-8 0-12 0-10-1-20-2-29-6-32-14-37-49-9-71 13-11 29-19 45-26 29-12 57-23 84-38 85-47 108-155 48-228z" horiz-adv-x="1000" />

<glyph glyph-name="cross" unicode="&#xe852;" d="M963 84l-266 266 266 266c16 16 16 43 0 60l-137 137c-17 16-44 16-60 0l-266-266-266 266c-16 16-43 16-59 0l-138-137c-16-17-16-44 0-60l266-266-266-266c-16-16-16-43 0-59l138-138c16-16 43-16 59 0l266 266 266-266c16-16 43-16 60 0l137 138c16 16 16 43 0 59z" horiz-adv-x="1000" />

<glyph glyph-name="tag-2" unicode="&#xe853;" d="M250 600q0 30-21 51t-50 20-51-20-21-51 21-50 51-21 50 21 21 50z m595-321q0-30-20-51l-274-274q-22-21-51-21-30 0-50 21l-399 399q-21 21-36 57t-15 65v232q0 29 21 50t50 22h233q29 0 65-15t57-36l399-399q20-21 20-50z" horiz-adv-x="857.1" />

<glyph glyph-name="distance" unicode="&#xe854;" d="M180 368c-99 0-180-81-180-180 0-50 27-111 82-180 38-50 76-86 78-87l20-19 20 19c2 1 40 37 78 87 55 69 82 130 82 180 0 99-81 180-180 180z m0-238c-32 0-58 26-58 58s26 58 58 58 58-26 58-58-26-58-58-58z m640 668c-99 0-180-81-180-180 0-51 28-111 82-180 38-50 77-86 78-87l20-19 20 19c2 1 40 37 79 87 54 69 81 129 81 180 0 99-81 180-180 180z m0-239c-32 0-58 27-58 59s26 58 58 58c32 0 58-26 58-58s-26-59-58-59z m-107-646h-416v59h416c43 0 78 35 78 78s-35 78-78 78h-164c-75 0-137 61-137 137s62 136 137 136h154v-58h-154c-43 0-78-35-78-78s35-78 78-78h164c75 0 137-62 137-137s-62-137-137-137z" horiz-adv-x="1000" />

<glyph glyph-name="dollar" unicode="&#xe855;" d="M689 811l-623-623c-21 47-34 99-38 154l507 507c54-4 106-17 154-38z m224-202l-645-645c-41 22-77 51-109 84l670 669c33-31 61-68 84-108z m-103 126l-668-668c-11 12-21 25-30 38l660 660c13-10 26-20 38-30z m149-240l-577-577c-17 4-34 9-51 16l612 612c6-17 11-34 16-51z m15-119c0-3 0-6-1-9-5 257-215 464-473 464s-468-207-473-464c0 3-1 6-1 9 0 262 213 474 474 474s474-212 474-474z m-89-20c0-205-166-371-371-371-115 0-218 52-286 135 67-74 164-120 272-120 205 0 371 167 371 372 0 89-32 172-85 236 61-66 99-155 99-252z m-104 258c-65 56-149 90-242 90-205 0-371-167-371-372 0-92 34-177 90-242-79 68-129 169-129 282 0 204 166 371 371 371 112 0 213-50 281-129z m-304-148c-7-8-10-18-10-32s4-24 11-32 21-16 38-23c17-7 33-15 49-23s28-17 39-27 20-21 26-35c2-5 9-14 9-14s0-33 0-34c0-31-10-57-30-77s-47-32-82-35v-55h-44v56c-40 4-71 18-93 41-21 23-32 54-32 92v30l94-30c0-21 4-37 14-48s22-16 40-16c12 0 22 4 29 11s11 18 11 31c0 15-4 26-11 35s-20 16-38 23c-18 8-34 15-50 23s-28 16-40 26-19 21-25 35c-6 13-9 28-9 47v31s17 33 32 46c21 21 49 32 84 36v58h44v-60c34-5 60-19 80-41 13-16 29-58 29-58v-29h-94c0 19-4 34-11 44s-18 15-32 15c-12 1-21-3-28-11z m69-191c0 15-4 26-11 35s-20 16-38 23c-18 8-34 15-50 23s-28 16-40 26-19 22-25 35c-6 13-9 29-9 47 0 32 11 57 32 77s49 32 84 36v58h44v-59c34-5 60-19 80-42s29-52 29-87h-94c0 19-4 34-11 44s-18 16-32 16c-12 0-22-4-28-12s-10-18-10-31 4-25 11-33 21-16 38-23c17-7 33-15 48-23s29-17 40-27 19-21 26-35 9-29 9-47c0-32-10-58-30-78s-47-31-82-35v-55h-44v56c-40 4-71 18-93 41-21 24-32 54-32 93h93c0-21 5-37 14-48s23-17 40-17c13 0 23 4 30 12s11 17 11 30z m-141 266c11 11 25 20 40 26l-66-67c5 16 13 30 26 41z m108 94l-24-24v24z m116-310l-159-159c-34 5-60 19-79 39-13 14-21 29-27 48l45 45h43c0-22 4-38 14-49s23-16 40-16c12 0 22 4 29 11s11 18 11 31c0 15-3 26-11 35s-20 16-37 23c-13 6-25 11-37 16l58 58c16-7 31-14 46-21 15-8 28-17 39-27 11-10 19-21 25-34z m13 122h-83l67 68c10-20 16-42 16-68z m-284-149h14l-13-14c0 5-1 9-1 14z m120 133c4-4 9-8 16-12l-58-58c-11 6-20 13-29 21-3 3-6 6-9 9l69 69c1-12 5-22 11-29z m133 105l-65-65c-2 8-5 15-9 20-6 8-14 13-23 15l58 59c15-7 28-17 39-29z m-106-428l22 23v-23z m128 128c-5-14-13-27-24-38s-24-19-39-25z m177 340c-241-84-434-269-528-505-8 6-16 13-24 19-56 66-90 150-90 242 0 205 166 372 371 372 93 0 177-34 242-90 10-12 20-25 29-38z" horiz-adv-x="1000" />

<glyph glyph-name="door" unicode="&#xe856;" d="M899-7v786l-572 71v-1000l572 71h47v72h-47z m-393 286h-71v142h71v-142z" horiz-adv-x="1000" />

<glyph glyph-name="edit" unicode="&#xe857;" d="M480 572l-342-342a126 126 0 0 1-35-71l-19-129a85 85 0 0 1 84-97 89 89 0 0 1 12 1l129 19h0a126 126 0 0 1 71 35l342 342z m301-183l86 86a146 146 0 0 1 0 206l-36 36a146 146 0 0 1-206 0l-86-86z" horiz-adv-x="1000" />

<glyph glyph-name="email" unicode="&#xe858;" d="M584 237c-25-16-54-25-84-25-30 0-59 9-84 25l-409 274c-3 1-5 3-7 4v-447c0-52 42-93 92-93h816c51 0 92 42 92 93v447c-2-1-4-3-7-4z m-545 322l410-273c15-10 33-15 51-15 18 0 36 5 51 15l410 273c24 17 39 44 39 74 0 50-41 92-92 92h-816c-51 0-92-42-92-93 0-29 15-56 39-73z" horiz-adv-x="1000" />

<glyph glyph-name="exchange-2" unicode="&#xe859;" d="M774 257h-351v61c0 42-47 68-81 44l-292-196c-32-21-32-67 0-86l292-196c36-24 81 2 81 43v62h351c14 0 24 10 24 23v222c0 11-12 23-24 23z m176 364l-292 195c-36 24-81-2-81-43v-62h-351c-12 0-24-11-24-25v-219c0-14 10-24 24-24h351v-61c0-42 47-67 81-44l292 194c32 21 32 69 0 89z" horiz-adv-x="1000" />

<glyph glyph-name="exchange" unicode="&#xe85a;" d="M717 564h-263v-113a21 21 0 0 0-31-18l-151 94-154 95a21 21 0 0 0 0 36l154 95 151 94a20 20 0 0 0 20 0 20 20 0 0 0 11-18v-114h330a108 108 0 0 0 108-107v-242a16 16 0 0 0-17-16h-118a16 16 0 0 0-16 16v174a24 24 0 0 1-24 24z m-433-428a24 24 0 0 0-25 24v174a16 16 0 0 1-16 16h-118a16 16 0 0 1-17-16v-241a108 108 0 0 1 108-108h330v-114a21 21 0 0 1 32-18l150 94 154 96a21 21 0 0 1 0 35l-154 95-150 94a21 21 0 0 1-32-18v-113z" horiz-adv-x="1000" />

<glyph glyph-name="fast-forward" unicode="&#xe85b;" d="M992 372l-300 334c-7 7-16 11-25 11h-200c-13 0-25-8-31-20-5-12-3-26 6-36l280-311-280-311c-9-10-11-24-6-36 6-12 18-20 31-20h200c9 0 18 4 25 11l300 334c11 12 11 32 0 44z m-434 0l-300 334c-6 7-15 11-25 11h-200c-13 0-25-8-30-20-5-12-3-26 6-36l280-311-280-311c-9-10-12-24-6-36 5-12 17-20 30-20h200c10 0 19 4 25 11l300 334c12 12 12 32 0 44z" horiz-adv-x="1000" />

<glyph glyph-name="flat" unicode="&#xe85c;" d="M738-108h-292v758h319v-634l-27-41z m0 0m-241 875h-51l-42-334 42-532 51 8z m0 0m-449 83v-83h-48v-858l269-32 177 24v949z m0 0m98-200h59v-84h-59z m0 0m146 0h58v-84h-58z m0 0m-146-167h59v-83h-59z m0 0m146 0h58v-83h-58z m0 0m-146-167h59v-83h-59z m0 0m146 0h58v-83h-58z m0 0m-146-166h59v-84h-59z m0 0m146 0h58v-84h-58z m0 0m280 333h58v-83h-58z m0 0m0-167h58v-83h-58z m0 0m135-289h58v-146h-58z m0 0m29-70c-70 0-128 57-128 128 0 70 58 128 128 128s128-58 128-128c0-71-57-128-128-128z m0 0m127-48h-417l-21-39 21-20h417z m0 0m-863 0h446v-59h-446z m0 0" horiz-adv-x="1000" />

<glyph glyph-name="heart" unicode="&#xe85d;" d="M790 136c-7-7-71-66-78-72-103-87-197-138-201-141-4-1-7-2-11-2s-7 1-11 2c-19 11-465 257-465 591 0 146 119 265 266 265 82 0 160-39 210-103 50 64 128 103 210 103 147 0 266-119 266-265 0-125-63-252-186-378z" horiz-adv-x="1000" />

<glyph glyph-name="eye-off" unicode="&#xe85e;" d="M310 105l43 79q-48 35-76 88t-27 114q0 67 34 125-128-65-213-197 94-144 239-209z m217 424q0 11-8 19t-19 7q-70 0-120-50t-50-119q0-11 8-19t19-8 19 8 8 19q0 48 34 82t82 34q11 0 19 8t8 19z m202 106q0-4 0-5-59-105-176-316t-176-316l-28-50q-5-9-15-9-7 0-75 39-9 6-9 16 0 7 25 49-80 36-147 96t-117 137q-11 17-11 38t11 39q86 131 212 207t277 76q50 0 100-10l31 54q5 9 15 9 3 0 10-3t18-9 18-10 18-10 10-7q9-5 9-15z m21-249q0-78-44-142t-117-91l157 280q4-25 4-47z m250-72q0-19-11-38-22-36-61-81-84-96-194-149t-234-53l41 74q119 10 219 76t169 171q-65 100-158 164l35 63q53-36 102-85t81-103q11-19 11-39z" horiz-adv-x="1000" />

<glyph glyph-name="house" unicode="&#xe85f;" d="M470 627v-79l94 44a8 8 0 0 0 7 0l125-58a8 8 0 0 0 4-4 8 8 0 0 0 0-6l-15-32a8 8 0 0 0-10-3l-24 11v-504h203v529l-301 140z m266-526h-57v155h57z m16 325h58v-154h-58z m0-170h58v-155h-58z m-16 16h-57v154h57z m-487 136l315 146a8 8 0 0 0 7 0l11-5 92-43 8 17-114 54-351-164 8-17 24 11c0 0 0 0 0 1z m320-48l-286-133-201-94 8-17 360 168 24 11 0 0 103 48z m-427-238v-126h156v126a8 8 0 0 0 8 8h145a8 8 0 0 0 8-8v-126h11v280l-12-6z m171-7h57v-119h-57z m73 0h57v-119h-57z m-126 280v-162l40 19 270 126a8 8 0 0 0 6 0 8 8 0 0 0 4-4l15-32a8 8 0 0 0 0-6 8 8 0 0 0-4-4l-106-49v-287h150v511l-67 32z m293 308l-114-53 8-17 12 6 91 42a8 8 0 0 0 3 1 8 8 0 0 0 3-1l309-144 31-14 8 17z" horiz-adv-x="1000" />

<glyph glyph-name="information" unicode="&#xe860;" d="M888 120a11 11 0 0 0 1 8l0 0a448 448 0 0 1-706 539 448 448 0 0 1 226-756 466 466 0 0 1 92-9 442 442 0 0 1 221 59 11 11 0 0 0 8 1l137-45a52 52 0 0 1 66 66z m-388 511a73 73 0 1 0-73-73 73 73 0 0 0 73 73z m21-531h-42a72 72 0 0 0-71 82l21 148a72 72 0 0 0 142 0l21-148a72 72 0 0 0-71-82z" horiz-adv-x="1000" />

<glyph glyph-name="layout-1" unicode="&#xe861;" d="M48 391h299c26 0 48 24 48 53v353c0 29-22 53-48 53h-299c-26 0-48-24-48-53v-353c0-29 22-53 48-53z m0-541h439a49 49 0 0 1 49 48v363a49 49 0 0 1-49 49h-439a49 49 0 0 1-48-49v-363a49 49 0 0 1 48-48z m904 459h-299c-26 0-48-24-48-53v-353c0-29 22-53 48-53h299c26 0 48 24 48 53v353c0 29-22 53-48 53z m0 541h-439a48 48 0 0 1-49-48v-363a48 48 0 0 1 49-48h439a48 48 0 0 1 48 48v363a48 48 0 0 1-48 48z" horiz-adv-x="1000" />

<glyph glyph-name="eye" unicode="&#xe862;" d="M929 314q-85 132-213 197 34-58 34-125 0-103-73-177t-177-73-177 73-73 177q0 67 34 125-128-65-213-197 75-114 187-182t242-68 243 68 186 182z m-402 215q0 11-8 19t-19 7q-70 0-120-50t-50-119q0-11 8-19t19-8 19 8 8 19q0 48 34 82t82 34q11 0 19 8t8 19z m473-215q0-19-11-38-78-129-210-206t-279-77-279 77-210 206q-11 19-11 38t11 39q78 128 210 205t279 78 279-78 210-205q11-20 11-39z" horiz-adv-x="1000" />

<glyph glyph-name="list" unicode="&#xe863;" d="M908 725h-565c-51 0-92-42-92-93 0-50 41-92 92-92h565c51 0 92 42 92 92 0 51-41 93-92 93z m-816 0c-51 0-92-42-92-93s41-92 92-92 92 42 92 92-41 93-92 93z m0-283c-51 0-92-41-92-92s41-92 92-92 92 41 92 92-41 92-92 92z m0-282c-51 0-92-42-92-92s41-93 92-93 92 42 92 93-41 92-92 92z m816 282h-565c-51 0-92-41-92-92 0-51 41-92 92-92h565c51 0 92 41 92 92 0 51-41 92-92 92z m0-282h-565c-51 0-92-42-92-92 0-51 41-93 92-93h565c51 0 92 42 92 93 0 50-41 92-92 92z" horiz-adv-x="1000" />

<glyph glyph-name="location-2" unicode="&#xe864;" d="M999 533l-313-314 292-293c14 23 21 50 21 78v529z m-101-635l-267 267-314-314h529c28 0 55 7 78 21l-24 23c-1 1-1 2-2 3z m-52 951h-692c-85 0-153-68-153-153v-692c0-85 68-153 153-153h55l790 790v55c0 85-68 153-153 153z m-415-612c-7-10-18-15-30-15s-24 5-31 15c-25 33-152 202-152 290 0 101 82 183 183 183 100 0 182-82 182-183 0-88-126-257-152-290z m76 290c0-38-55-130-106-202-51 72-106 164-106 202 0 59 47 106 106 106 58 0 106-47 106-106z" horiz-adv-x="1000" />

<glyph glyph-name="location-1" unicode="&#xe865;" d="M500 850c-176 0-322-141-322-322 0-69 20-130 60-188l237-370c12-18 38-18 50 0l238 372c39 54 59 119 59 186 0 177-144 322-322 322z m0-469c-81 0-146 66-146 147 0 81 65 146 146 146 81 0 147-65 147-146 0-81-66-147-147-147z m229-204l-147-231c-39-59-125-59-163 0l-148 231c-130-30-210-85-210-151 0-114 226-176 439-176s440 62 440 176c0 66-81 121-211 151z" horiz-adv-x="1000" />

<glyph glyph-name="lock-4" unicode="&#xe866;" d="M854 475h-62v83c0 161-131 292-292 292s-292-131-292-292v-20c0-12 10-21 21-21h84c11 0 20 9 20 21v20c0 92 75 167 167 167s167-75 167-167v-83h-521c-12 0-21-9-21-21v-521c0-46 37-83 83-83h584c46 0 83 37 83 83v521c0 12-9 21-21 21z m-292-435c1-6-1-12-5-16-4-5-9-7-15-7h-84c-6 0-11 2-15 7-4 4-6 10-5 16l13 118c-22 16-34 40-34 67 0 46 37 83 83 83s83-37 83-83c0-27-12-51-34-67l13-118z" horiz-adv-x="1000" />

<glyph glyph-name="plus-1" unicode="&#xe867;" d="M786 439v-107q0-22-16-38t-38-15h-232v-233q0-22-16-37t-38-16h-107q-22 0-38 16t-15 37v233h-232q-23 0-38 15t-16 38v107q0 23 16 38t38 16h232v232q0 22 15 38t38 16h107q23 0 38-16t16-38v-232h232q23 0 38-16t16-38z" horiz-adv-x="785.7" />

<glyph glyph-name="lock-open-4" unicode="&#xe868;" d="M125 308c0 110 89 198 198 198h333c110 0 198-88 198-198v-166c0-110-88-198-198-198h-333c-109 0-198 88-198 198z m396-41c0 17-14 31-31 31s-32-14-32-31v-84c0-17 14-31 32-31s31 14 31 31z m90 369c10-14 30-18 44-8 14 10 17 29 7 44z m-266 45c-11-13-8-33 5-44 14-10 33-8 44 6z m20-206v83h-63v-83z m0 83c0 75 60 136 135 136v62c-109 0-198-88-198-198z m297 114c-23 33-57 59-96 73l-21-59c27-9 50-27 66-50z m-96 73c-39 14-81 15-121 4l18-60c27 7 56 6 82-3z m-121 4c-39-12-74-35-100-68l49-38c18 22 42 38 69 46z" horiz-adv-x="1000" />

<glyph glyph-name="ok-2" unicode="&#xe869;" d="M933 534q0-22-16-38l-404-404-76-76q-16-15-38-15t-38 15l-76 76-202 202q-15 16-15 38t15 38l76 76q16 16 38 16t38-16l164-165 366 367q16 16 38 16t38-16l76-76q16-15 16-38z" horiz-adv-x="1000" />

<glyph glyph-name="th-list" unicode="&#xe86a;" d="M286 154v-108q0-22-16-37t-38-16h-178q-23 0-38 16t-16 37v108q0 22 16 38t38 15h178q23 0 38-15t16-38z m0 285v-107q0-22-16-38t-38-15h-178q-23 0-38 15t-16 38v107q0 23 16 38t38 16h178q23 0 38-16t16-38z m714-285v-108q0-22-16-37t-38-16h-535q-23 0-38 16t-16 37v108q0 22 16 38t38 15h535q23 0 38-15t16-38z m-714 571v-107q0-22-16-38t-38-16h-178q-23 0-38 16t-16 38v107q0 22 16 38t38 16h178q23 0 38-16t16-38z m714-286v-107q0-22-16-38t-38-15h-535q-23 0-38 15t-16 38v107q0 23 16 38t38 16h535q23 0 38-16t16-38z m0 286v-107q0-22-16-38t-38-16h-535q-23 0-38 16t-16 38v107q0 22 16 38t38 16h535q23 0 38-16t16-38z" horiz-adv-x="1000" />

<glyph glyph-name="bell-2" unicode="&#xe86b;" d="M808 145c-63 54-100 131-100 214v116c0 147-109 268-250 288v45c0 23-18 42-41 42-23 0-42-19-42-42v-45c-141-20-250-141-250-288v-116c0-83-36-160-99-214-17-14-26-34-26-55 0-41 33-73 73-73h687c41 0 73 32 73 73 0 21-9 41-25 55z m0 0m-391-295c75 0 138 54 153 125h-306c14-71 77-125 153-125z m0 0" horiz-adv-x="1000" />

<glyph glyph-name="logout-1" unicode="&#xe86c;" d="M625 308c-23 0-42-18-42-41v-167c0-23-18-42-41-42h-125v625c0 36-23 68-57 80l-12 4h194c23 0 41-19 41-42v-125c0-23 19-42 42-42s42 19 42 42v125c0 69-56 125-125 125h-448c-2 0-3-1-5-1-2 0-4 1-6 1-46 0-83-37-83-83v-750c0-36 23-68 57-80l251-83c8-3 17-4 25-4 46 0 84 37 84 83v42h125c69 0 125 56 125 125v167c0 23-19 41-42 41z m0 0m363 155l-167 166c-12 12-30 16-45 10-16-7-26-22-26-39v-125h-167c-23 0-41-19-41-42 0-23 18-41 41-41h167v-125c0-17 10-32 26-39 15-6 33-3 45 9l167 167c16 16 16 43 0 59z m0 0" horiz-adv-x="1000" />

<glyph glyph-name="map-2" unicode="&#xe86d;" d="M995-111l-156 562a27 27 0 0 1-26 20h-625a27 27 0 0 1-27-20l-156-562a27 27 0 0 1 26-35h938a27 27 0 0 1 26 35z m-625 582h-182a27 27 0 0 1-27-20l-103-370h155z m541-281l-72 261a27 27 0 0 1-26 20h-340c43-102 119-281 119-281z m-7 27h-294l-107 254h-60l116-275-89-88h-217l147 363h-59l-147-363h-128l-15-54h403v-200h55v215l94 93h316z m-377 339l137-220a27 27 0 0 1 47 0l137 220a190 190 0 0 1-160 290 190 190 0 0 1-161-290z" horiz-adv-x="1000" />

<glyph glyph-name="map" unicode="&#xe86e;" d="M859-91l-394 208c-10 6-22 5-32-2l-301-208c-11-8-16-22-12-35 4-13 16-22 30-22h694c14 0 27 10 30 24 4 14-3 28-15 35z m131 59l-92 417c-2 10-10 18-19 22-10 4-21 2-29-3l-301-209c-9-6-14-16-14-27 1-11 7-21 17-26l393-208c5-3 10-4 15-4 7 0 13 2 19 7 9 7 14 19 11 31z m-217 485c-4 13-16 22-30 22h-285c-52-94-129-184-161-219-17-20-43-31-69-31s-52 11-70 31c-12 14-31 35-53 62l-75-340c-3-13 2-26 13-33 5-3 11-5 17-5 6 0 13 2 18 5l683 473c11 8 16 22 12 35z m-545 397c-121 0-219-98-219-219 0-112 175-311 195-333 6-7 15-10 24-10s17 3 23 10c20 22 195 221 195 333 0 121-98 219-218 219z m0-312c-52 0-94 42-94 93 0 52 42 94 94 94 51 0 93-42 93-94 0-51-42-93-93-93z" horiz-adv-x="1000" />

<glyph glyph-name="map-location-2" unicode="&#xe86f;" d="M51 330a23 23 0 0 0-10 11l-34 38v-237l154 64z m49 15l107-121 180 75-97 156z m166 150l-80 128h-156a23 23 0 0 1-23-24v-149l61-69z m219-378l263 111-21 151-278-106z m-80 138l-173-71 79-215 132 123z m391-30l195-56v311l-219-84z m-789-134v-117a23 23 0 0 1 23-23h238l-80 215z m961 532h-229l26-179 226 87v68a23 23 0 0 1-23 24z m-133-672h133a23 23 0 0 1 23 23v147l-188 53z m-219 170l-16-170h188l-33 229z m-256-170h193l14 149-85-36z m-26 584c-14 28-21 55-21 81 0 2 0 4 0 7h-71l64-104z m271-87a657 657 0 0 0-76-72 47 47 0 0 0-58 0 657 657 0 0 0-76 72 474 474 0 0 0-37 46l-27-15 101-163 288 111-28 196h-5c0-3 1-5 1-7 0-51-28-108-83-168z m-119-54a23 23 0 0 1 28 0 631 631 0 0 1 74 69c50 57 76 108 76 153a164 164 0 0 1-328 0c0-45 26-96 76-153a631 631 0 0 1 74-69z m14 300a78 78 0 1 0-78-78 78 78 0 0 0 78 78z" horiz-adv-x="1000" />

<glyph glyph-name="map-location" unicode="&#xe870;" d="M51 330a23 23 0 0 0-10 11l-34 38v-237l154 64z m434 293h-243l64-104z m-219-128l-80 128h-156a23 23 0 0 1-23-24v-149l61-69z m530-270l195-56v311l-219-84z m-789-134v-117a23 23 0 0 1 23-23h238l-80 215z m324 388l101-163 288 111-28 196h-114z m-99-295l79-215 132 123-38 163z m250-120l-122-113h193l14 149z m134 57l-16-170h188l-33 229z m180 104l-24 171 219 84v51l-226-87-26 179h-47l28-196-288-111-101 163 247 144h-93l-179-104-64 104h-56l80-128-198-114-61 69v-71l34-38a23 23 0 0 1 10-11l110-124-154-64v-51l181 75 80-215h92l122 113 85 36-14-149h47l16 170 139 59 33-229h47l-32 223 188-53v48z m-696 120l190 110 97-156-180-75z m211-376l-79 215 173 71 38-163z m174 148l-36 156 278 106 21-151z m15 663a164 164 0 0 1-164-164c0-45 26-96 76-153a631 631 0 0 1 74-69 23 23 0 0 1 28 0 631 631 0 0 1 74 69c50 57 76 108 76 153a164 164 0 0 1-164 164z" horiz-adv-x="1000" />

<glyph glyph-name="direct" unicode="&#xe871;" d="M402 61c-12 13-32 13-44 0l-82-82c-12-12-12-32 0-44 12-12 32-12 44 0l82 82c12 12 12 32 0 44z m-222 222c-12 13-32 13-44 0l-82-81c-12-13-12-32 0-45 12-12 32-12 44 0l82 82c12 12 12 32 0 44z m148-74c-12 13-32 13-44 0l-208-207c-12-12-12-32 0-44 13-13 32-13 45 0l207 207c12 12 12 32 0 44z m639 600l-296-906c-8-26-43-30-57-6l-199 342c-6 11-5 25 2 35l72 96-97-72c-10-7-23-8-34-2l-342 200c-24 13-20 48 6 56l906 296c24 8 47-15 39-39z" horiz-adv-x="1000" />

<glyph glyph-name="send" unicode="&#xe872;" d="M766 545l-353-245-370 123c-26 9-43 33-43 60 0 27 18 51 44 60l945 304c22 7 47 1 63-15 17-17 23-42 16-64l-304-945c-9-26-33-44-60-44-27 0-51 17-60 43l-124 372z" horiz-adv-x="1000" />

<glyph glyph-name="maps-and-location" unicode="&#xe873;" d="M0 411v-205l181-19 129 19 113 77 75 110 3 11-3 7-249 7z m498 0v-18l11 2 6 16-8 3z m-188 439h-310v-381l293-15 205 15 27 85-27 108-75 100z m-76-381s-87 127-87 176 39 88 87 88 88-39 88-88-88-176-88-176m398 59l-134 134v-193h76z m-239 322l41-76 64-29 27 59-27 46z m562 0h-457v-105l94-129 82-47 168 131z m-477-547l-26-39 15-37 31-9 6 39-6 36z m312 10l-292-20v-75l214-270 150-94h134v222z m-790-166v-252l143 126 109 126-126 12z m540 205l263-36 193-157v181l-73 123-161 111-82-54z m456 71v386l-115-76-78-117 90-125z m-586-200l-58-27-91-122 91-220h146l17 159-17 122-38 63z m147-369h222l-86 124-136 98-22-133z m-337 178l-81-37-98-141h252l20 111z m90 174h-310v-59h252l-252-252v-41h41l179 178 73-73v-105h59v129l-91 91 149 149 88-88 20 43-20 40-46 46 29 29h17l20 54-20 46z m188-352h59v222l222-222h83l-364 364z m-498 615v-58h498l9 29-9 29z m393 381h-83l188-188 17 34-17 49z m603 0h-41l-281-281-176 176v-83l134-134-58-59h-76v-58h17l-17-18v-100h281l217-217v83l-193 193h-263l222 222 234-234v83l-193 193 193 193z" horiz-adv-x="1000" />

<glyph glyph-name="megaphone-1" unicode="&#xe874;" d="M274 102l-47-23c-37-17-80-1-97 36l-70 151c-17 36-2 80 35 97l47 22z m-80 319l300 269c17 15 40 22 63 17s42-20 51-40l182-389c9-21 9-46-2-66-11-20-31-34-54-37l-399-57z m709 181c16 7 34 0 41-16 8-15 1-34-15-41l-75-35c-16-8-34-1-42 15-7 15 0 34 15 41z m23-253c16-5 25-23 19-40-6-16-24-24-40-18l-79 28c-16 6-24 24-18 40 6 16 24 25 40 19z m-232 394c6 16 24 24 40 19 16-6 24-24 19-40l-29-79c-6-16-24-24-40-18-16 5-25 23-19 40z m-211-646l18-39c17-36 2-80-35-97l-38-18c-36-17-80-1-97 36l-39 85 18 8z" horiz-adv-x="1000" />

<glyph glyph-name="sms21" unicode="&#xe875;" d="M855 850h-710c-71 0-129-58-129-129v-581c0-71 58-129 129-129v-129c0-12 7-24 19-29 4-2 9-3 13-3 8 0 15 2 21 7l185 154h472c71 0 129 58 129 129v581c0 71-58 129-129 129z m-613-387c53 0 97-43 97-97s-44-97-97-97h-65c-17 0-32 15-32 33 0 17 15 32 32 32h65c18 0 32 14 32 32 0 18-14 32-32 32-53 0-97 44-97 97s44 97 97 97h64c18 0 33-14 33-32 0-18-15-33-33-33h-64c-18 0-32-14-32-32 0-18 14-32 32-32z m355-161c0-18-15-33-32-33-18 0-33 15-33 33v121l-3-7c-11-22-47-22-58 0l-3 7v-121c0-18-15-33-32-33-18 0-33 15-33 33v258c0 15 11 28 25 31 14 4 30-3 36-17l36-71 36 71c6 14 21 21 36 17 15-3 25-16 25-31v-258z m161 161c53 0 97-43 97-97s-44-97-97-97h-64c-18 0-33 15-33 33 0 17 15 32 33 32h64c18 0 32 14 32 32 0 18-14 32-32 32-53 0-97 44-97 97s44 97 97 97h65c17 0 32-14 32-32 0-18-15-33-32-33h-65c-18 0-32-14-32-32 0-18 14-32 32-32z" horiz-adv-x="1000" />

<glyph glyph-name="menu" unicode="&#xe876;" d="M468 160c0 42-16 82-46 112-30 30-70 46-112 46-41 0-86 0-127 0-42 0-82-16-112-46-29-30-46-70-46-112v-127c0-42 17-82 46-112 30-29 70-46 112-46h127c42 0 82 17 112 46 30 30 46 70 46 112v127z m507 0c0 42-17 82-46 112-30 30-70 46-112 46-41 0-86 0-127 0-42 0-82-16-112-46-30-30-46-70-46-112v-127c0-42 16-82 46-112 30-29 70-46 112-46h127c42 0 82 17 112 46 29 30 46 70 46 112z m-507 507c0 42-16 82-46 112-30 29-70 46-112 46-41 0-86 0-127 0-42 0-82-17-112-46-29-30-46-70-46-112v-127c0-42 17-82 46-112 30-30 70-46 112-46h127c42 0 82 16 112 46 30 30 46 70 46 112z m507 0c0 42-17 82-46 112-30 29-70 46-112 46-41 0-86 0-127 0-42 0-82-17-112-46-30-30-46-70-46-112v-127c0-42 16-82 46-112 30-30 70-46 112-46h127c42 0 82 16 112 46 29 30 46 70 46 112z" horiz-adv-x="1000" />

<glyph glyph-name="money" unicode="&#xe877;" d="M14 349c-11-4-17-16-13-27l13-36 100 100-100-37z m94-320l60-165c2-6 6-10 11-12 3-1 6-2 9-2 2 0 4 0 7 1l66 25-153 153z m891 141l-69 188-165-164 82 30c11 4 23-2 27-13 4-10-2-22-13-26l-103-39c-3 0-5-1-8-1-8 0-16 5-19 14 0 0 0 0 0 0l-175-175 430 159c11 4 17 16 13 27z m-5 341l-333 333c-9 8-22 8-30 0l-625-625c-8-8-8-21 0-29l334-334c4-4 9-6 14-6 6 0 11 2 15 6l625 625c8 8 8 21 0 30z m-750-238l-83-84c-4-4-10-6-15-6-5 0-11 2-15 6-8 9-8 22 0 30l83 83c9 8 22 8 30 0 8-8 8-21 0-29z m360-27c-15-14-35-21-57-21-37 0-80 19-116 55-27 26-45 58-52 89-8 34-2 64 18 84 20 20 50 26 85 18 30-7 62-25 88-52 58-58 73-134 34-173z m265 235l-83-83c-4-4-10-6-15-6s-11 2-15 6c-8 8-8 21 0 29l83 84c9 8 22 8 30 0 8-9 8-22 0-30z" horiz-adv-x="1000" />

<glyph glyph-name="settings" unicode="&#xe878;" d="M970 240l-92 72c1 11 2 24 2 38 0 14-1 27-2 38l92 72c17 13 22 37 11 57l-96 166c-10 18-32 28-55 19l-108-43c-21 15-43 28-65 38l-17 115c-3 22-22 38-44 38h-192c-22 0-41-16-44-38l-16-115c-22-10-44-23-65-38l-109 43c-20 8-45 0-55-19l-96-166c-11-19-6-44 11-57l92-72c-1-14-2-26-2-38s1-24 2-38l-92-72c-17-13-22-37-11-57l96-165c10-19 32-29 55-20l109 43c20-15 42-27 65-38l16-115c3-22 22-38 44-38h192c22 0 41 16 44 38l17 115c21 10 43 23 65 38l108-43c6-3 11-4 17-4 16 0 31 9 38 23l96 166c11 20 6 44-11 57z m-470-57c-92 0-167 75-167 167s75 167 167 167 167-75 167-167-75-167-167-167z" horiz-adv-x="1000" />

<glyph glyph-name="up-open" unicode="&#xe879;" d="M939 107l-92-92q-11-10-26-10t-25 10l-296 297-296-297q-11-10-25-10t-25 10l-93 92q-11 11-11 26t11 25l414 414q11 10 25 10t25-10l414-414q11-11 11-25t-11-26z" horiz-adv-x="1000" />

<glyph glyph-name="pen-2" unicode="&#xe87a;" d="M686 743l107 107 207-207-107-107z m-497-514l-79-269 269 79z m33 50l422 422 207-207-422-422z m-222-370h1000v-59h-1000z" horiz-adv-x="1000" />

<glyph glyph-name="pen" unicode="&#xe87b;" d="M353-26l-227 227 549 549 227-227z m-248 187l208-208-312-104z m867 432l-39-39-228 227 40 39c39 40 104 40 143 0l84-83c39-40 39-104 0-144z m0 0" horiz-adv-x="1000" />

<glyph glyph-name="pencil-black-gross-tool" unicode="&#xe87c;" d="M634 720c-7 7-19 7-26 0l-504-504c-7-8-7-19 0-26l236-236c7-7 18-7 26 0l504 504c7 7 7 19 0 26l-236 236z m-558-558c-5 5-12 7-19 4s-11-7-12-14l-45-281c-1-6 1-12 5-16s10-6 16-5l281 45c7 1 12 6 14 12 3 7 1 14-4 19l-236 236z m919 447l-236 236c-7 7-19 7-26 0l-73-74c-8-7-8-18 0-25l236-236c7-8 18-8 25 0l74 73c7 7 7 19 0 26z" horiz-adv-x="1000" />

<glyph glyph-name="person" unicode="&#xe87d;" d="M886 107c0-128-173-232-386-232s-386 104-386 232c0 128 173 232 386 232s386-104 386-232z m-604 500c0 120 98 218 218 218s218-98 218-218c0-121-97-218-218-218s-218 97-218 218z" horiz-adv-x="1000" />

<glyph glyph-name="photo-2" unicode="&#xe87e;" d="M35 834a1 1 0 0 1-1 0 1 1 0 0 1-1 0l-12-17-7 9a1 1 0 0 1-1 1 1 1 0 0 1-1-1l-12-14v-4a5 5 0 0 1 5-5h39a5 5 0 0 1 5 5v6z" horiz-adv-x="1000" />

<glyph glyph-name="photo" unicode="&#xe87f;" d="M46 822a2 2 0 0 1-3 0l-8-9a2 2 0 0 1 0-2l20-20a8 8 0 0 1 4 6v13z m-19 2a2 2 0 0 1-3 0l-20-20v-7a8 8 0 0 1 8-7h39a8 8 0 0 1 7 3z" horiz-adv-x="1000" />

<glyph glyph-name="pin-1" unicode="&#xe880;" d="M741 200c-35-51-78-106-129-164-28-32-69-51-112-51s-84 19-112 51c-51 58-94 113-129 164-67-31-104-73-104-121 0-95 148-167 345-167s345 72 345 167c0 48-37 90-104 121z m-190 287c0 27-23 50-51 50s-51-23-51-50c0-29 23-51 51-51s51 22 51 51z m-51-439c25 0 48 10 65 29 88 101 236 290 236 410 0 166-135 301-301 301s-301-135-301-301c0-120 148-309 236-410 17-19 40-29 65-29z m-113 439c0 62 51 113 113 113s113-51 113-113-50-114-113-114-113 51-113 114z" horiz-adv-x="1000" />

<glyph glyph-name="technical-support" unicode="&#xe881;" d="M180 508c2-3 5-6 9-6l88-23 105-105 73 90-96 95-23 90c-1 4-3 7-6 9l-171 106c-6 3-13 3-18-2l-65-65c-5-5-6-12-2-18z m723-435l-218 218c-6 6-15 6-21 0l-18-18-41 41-73-90 32-32-18-18c-7-6-7-16 0-21l218-218c36-37 97-34 133 4 39 37 42 97 6 134z m-226 377c73-21 156 2 206 65 50 61 58 146 22 214-5 9-19 10-26 3l-80-99-70 5-17 67 80 98c7 9 4 21-7 24-73 22-155-3-205-65-50-60-57-147-21-215l-273-336c-13 3-25 4-39 4-53 0-103-24-136-65-61-76-49-185 25-246 32-25 70-39 111-39 53 0 103 23 136 65 43 53 52 125 23 185z m-345-459c0-6-3-11-9-12l-76-37c-6-3-11-1-15 2l-70 47c-4 3-7 7-6 14l6 84c0 7 3 11 9 13l76 36c5 3 11 1 15-2l70-48c4-3 7-8 6-14z" horiz-adv-x="1000" />

<glyph glyph-name="down-open" unicode="&#xe882;" d="M939 399l-414-413q-10-11-25-11t-25 11l-414 413q-11 11-11 26t11 25l93 92q10 11 25 11t25-11l296-296 296 296q11 11 25 11t26-11l92-92q11-11 11-25t-11-26z" horiz-adv-x="1000" />

<glyph glyph-name="property-2" unicode="&#xe883;" d="M419 728h64v44c0 9 7 16 16 16s16-7 16-16v-44h64c6 0 11-5 11-11v-28h-183v28c0 6 6 11 12 11z m546-172h-283v-644h283c11 0 19 9 19 20v604c0 11-8 20-19 20z m-154-516c0-5-4-9-10-9h-50c-6 0-10 4-10 9v51c0 6 4 10 10 10h50c6 0 10-4 10-10z m0 114c0-5-4-9-10-9h-50c-6 0-10 4-10 9v51c0 6 4 10 10 10h50c6 0 10-4 10-10z m0 115c0-6-4-10-10-10h-50c-6 0-10 4-10 10v50c0 6 4 10 10 10h50c6 0 10-4 10-10z m114-229c0-5-4-9-10-9h-50c-6 0-10 4-10 9v51c0 6 4 10 10 10h50c6 0 10-4 10-10z m0 114c0-5-4-9-10-9h-50c-6 0-10 4-10 9v51c0 6 4 10 10 10h50c6 0 10-4 10-10z m0 115c0-6-4-10-10-10h-50c-6 0-10 4-10 10v50c0 6 4 10 10 10h50c6 0 10-4 10-10z m9 145c0-5-4-10-10-10h-182c-6 0-10 5-10 10v55c0 5 4 10 10 10h182c6 0 10-5 10-10z m-902-458h507c6 0 10-4 10-10v-24c0-5-4-10-10-10h-507c-6 0-10 5-10 10v24c0 6 4 10 10 10z m519 306l-265 120-266-120c-7-3-5-14 3-14h40v-260h72v141c0 5 5 9 10 9h104c5 0 10-4 10-9v-141h249v260h40c8 0 10 11 3 14z m-120-136c0-6-4-10-10-10h-99c-5 0-10 4-10 10v66c0 5 5 10 10 10h99c6 0 10-5 10-10z m-314 257c-6 0-10-4-10-10v-37l68 30v7c0 6-5 10-10 10z m514 274h-264c-11 0-19-8-19-19v-249l173-79c1 4 5 7 10 7h50c6 0 10-4 10-9v-51c0-4-2-7-5-9-4-16-17-31-38-31h-9v-61c21 0 38-16 38-35v-209h73v726c0 11-8 19-19 19z m-154-286c0-5-4-10-10-10h-51c-5 0-9 5-9 10v51c0 5 4 9 9 9h51c6 0 10-4 10-9z m114 0c0-5-4-10-10-10h-50c-6 0-10 5-10 10v51c0 5 4 9 10 9h50c6 0 10-4 10-9z m0 158c0-6-4-10-10-10h-165c-5 0-9 4-9 10v48c0 5 4 10 9 10h165c6 0 10-5 10-10z" horiz-adv-x="1000" />

<glyph glyph-name="property" unicode="&#xe884;" d="M336-47h101v200h-45c-18 0-32 12-37 28-4 15 2 31 15 40v75l42 6v-57l42 23v41l48 7v-22l33 18v514l-199-85z m166 415l-48-9v86l48 12z m0 140l-48-13v87l48 16v-90z m0 225v-84l-48-18 0 81z m-132-57l42 18 0-79-42-15v76z m0-123l42 14v-84l-42-12v82z m0-129l42 11v-84l-42-8v81z m400 312v-413l-78 43c-19 10-40 10-58 0l-75-41v501z m-654-234v-549h197v633z m84-415h-34v65l34 4z m0 108l-34-5v66l34 7z m0 108l-34-9v66l34 11z m0 107l-34-12v62l34 14 0-64z m75-323h-40v72l40 4v-76z m0 118l-40-5v71l40 8z m0 116l-40-10v71l40 12z m0 116l-40-14v66l40 17z m665-234l-259 143c-12 6-25 6-36 0l-260-143c-6-3-9-9-7-16 2-6 7-11 14-11h69v-223h52v139h-14c-7 0-12 6-12 12s5 12 12 12h130c6 0 12-5 12-12s-6-12-12-12h-15v-139h251v223h69c6 0 12 5 13 11s-1 13-7 16z m-314 49c0 21 16 37 37 37s36-16 36-37-16-36-36-36-37 16-37 36z m111-132h-52v56h52z m75 0h-52v56h52z m-760-231v26c0 8 7 14 15 14h849c8 0 14-6 14-14v-26c0-8-6-15-14-15h-849c-8 0-15 7-15 15z" horiz-adv-x="1000" />

<glyph glyph-name="push-pin" unicode="&#xe885;" d="M691 239l223 224a63 63 0 0 1 0 88l-213 213a63 63 0 0 1-88 0l-224-223a44 44 0 0 0-36-13l-99 11a44 44 0 0 1-36-13l-66-66a44 44 0 0 1 0-63l395-395a44 44 0 0 1 63 0l66 66a44 44 0 0 1 13 36l-11 99a44 44 0 0 0 13 36z m-596-336a42 42 0 0 0-30 71l322 322a42 42 0 1 0 59-59l-322-322a42 42 0 0 0-29-12z" horiz-adv-x="1000" />

<glyph glyph-name="rental" unicode="&#xe886;" d="M948 272l-206 35-60 89c-16 24-42 37-70 37h-308c-28 0-54-13-69-37l-60-90-128-32c-27-7-47-32-47-61v-104c0-25 10-48 27-65 17-17 41-27 65-27h54c1 0 1 0 2 0 9-48 52-84 102-84s93 36 102 84c1 0 1 0 2 0h271c1 0 1 0 2 0 10-48 52-84 102-84s93 36 102 84c1 0 2 0 2 0h92c16 0 30 9 37 23l34 67c0 2 1 3 1 5l3 9c0 2 0 3 0 5v85c0 30-22 56-52 61z m-698-297c-34 0-62 28-62 63 0 34 28 62 62 62s63-28 63-62c0-35-28-63-63-63z m403 250h-382c-7 0-14 4-18 10-4 6-4 14 0 21l44 83c4 7 11 11 18 11h286c7 0 14-4 18-10l52-83c4-7 4-15 0-21-3-7-10-11-18-11z m76-250c-34 0-62 28-62 63 0 34 28 62 62 62 35 0 63-28 63-62 0-35-28-63-63-63z m-511 629l62-42c4-2 8-4 12-4h181c23-49 73-83 131-83 81 0 146 65 146 146 0 80-65 146-146 146-58 0-108-34-131-84h-181c-4 0-8-1-12-3l-62-42c-6-4-10-10-10-17s4-14 10-17z m428 59c23 0 42-19 42-42 0-23-19-42-42-42-23 0-42 19-42 42 0 23 19 42 42 42z" horiz-adv-x="1000" />

<glyph glyph-name="right" unicode="&#xe887;" d="M25 58c12 154 91 441 505 441v150c0 16 13 29 29 29 6 0 12-2 17-6l381-285c20-15 24-44 9-65-3-3-6-6-9-9l-380-285c-13-10-31-8-41 5-4 5-6 12-6 18v151s-270 49-453-166c-11-12-30-13-42-2-7 6-10 15-10 24z" horiz-adv-x="1000" />

<glyph glyph-name="road-barrier" unicode="&#xe888;" d="M617 436h63v-422h-63z m63-23c-22 0-39-18-39-40v-15h-24v78h63z m39-243v-47h-125c-7 0-12 4-14 10-1 2-2 4-2 6v31z m0 0v-47h-125c-7 0-12 4-14 10l11 37z m0 469h-141v31c0 9 7 16 16 16h109c9 0 16-7 16-16z m-571-203h63v-422h-63z m63-336c-22 0-39-17-39-39v-47h-24v109h63z m0 313c-22 0-39-18-39-40v-15h-24v78h63z m562 23h-718c-9 0-16 7-16 16v171c0 9 7 16 16 16h718c9 0 16-7 16-16v-171c0-9-7-16-16-16z m16-94v-156c0-9-7-16-16-16h-718c-9 0-16 7-16 16v156c0 9 7 16 16 16h718c9 0 16-7 16-16z m-32 16l32-103v-69c0-9-7-16-16-16h-182l58 188z m-507-188h-109l-63 188h110z m250 0h-109l-63 188h110z m250 0h-109l-26 77-37 111h110z m39-156v-62h-750v31c0 17 14 31 31 31z m0 0v-62h-266l10 31 10 31z m-539 625h-141v31c0 9 7 16 16 16h109c9 0 16-7 16-16z m-16-516h-109c-9 0-16 7-16 16v31h141v-31c0-9-7-16-16-16z m16 313h-109l-63 203h110z m250 0h-109l-63 203h110z m250 0h-109l-63 203h110z m211-547h-453v31c0 18 14 32 31 32h391c17 0 31-14 31-32z m-758 813c-34 0-62 28-62 62 0 17 6 32 17 43-24-9-41-32-41-59 0-34 28-62 63-62 18 0 34 8 45 20-7-3-14-4-22-4z m469 0c-35 0-63 28-63 62 0 17 7 32 17 43-23-9-40-32-40-59 0-34 28-62 62-62 18 0 35 8 46 20-7-3-14-4-22-4z m242-750h-359l9 31 118 382c4 10 13 16 23 16h59c10 0 19-6 22-16l118-382z m0 0h-359l127 413c4 10 13 16 23 16h39c-10 0-19-6-22-16l-75-240c-21-71 31-142 105-142h152z m-82 265h-195l24 78h147z m-132 78l-24-78h-39l24 78z m190-265h-311l24 78h263z m-228 0h-83l24 78h40c-4-29 4-56 19-78z" horiz-adv-x="1000" />

<glyph glyph-name="route" unicode="&#xe889;" d="M721 4h-567c-52 0-95 43-95 96s43 96 95 96h188c85 0 154 69 154 154s-69 154-154 154h-188c-16 0-29-13-29-29s13-29 29-29h188c53 0 96-43 96-96s-43-96-96-96h-188c-85 0-154-69-154-154s69-154 154-154h567c16 0 29 13 29 29s-13 29-29 29z m0 0h-221v-58h221c16 0 29 13 29 29s-13 29-29 29z m62-121c-50 0-92 41-92 92s42 92 92 92 92-41 92-92-41-92-92-92z m-691 500c-51 0-92 41-92 92s41 92 92 92 92-41 92-92-42-92-92-92z m0 125c-16 0-29 13-29 30v250c0 16 13 29 29 29s29-13 29-29v-250c0-17-13-30-29-30z m187 125h-187c-16 0-29 13-29 30v125c0 16 13 29 29 29h187c17 0 30-13 30-29v-125c0-17-13-30-30-30z m504 121c-119 0-217-97-217-216 0-65 29-125 78-166l113-223c5-10 15-16 26-16s21 6 26 16l114 223c49 41 77 101 77 166 0 119-97 216-217 216z m0-308c-50 0-92 41-92 92s42 91 92 91 92-41 92-91-41-92-92-92z m217 92c0-65-28-125-77-166l-114-223c-5-10-15-16-26-16v313c51 0 92 41 92 92s-41 91-92 91v125c120 0 217-97 217-216z" horiz-adv-x="1000" />

<glyph glyph-name="search-2" unicode="&#xe88a;" d="M733 223c53 79 75 176 61 271s-62 182-137 243c-74 61-168 92-264 88s-187-45-255-113-108-159-112-255 26-190 87-264c61-75 148-123 243-137 95-14 192 8 271 61l223-222c19-18 46-24 71-17 25 7 44 26 51 51 7 25 1 52-17 71z m-321-23c-63 0-124 25-169 70-44 45-69 105-69 168 0 63 25 124 69 169 45 44 106 69 169 69 63 0 123-25 168-69 45-45 70-106 70-169 0-63-25-123-70-168-45-45-105-70-168-70z" horiz-adv-x="1000" />

<glyph glyph-name="wallet6" unicode="&#xe88b;" d="M812 600h-499c-34 0-37 40-9 47h508c7 0 14 0 21-1-10 70-75 119-145 109-2 0-4-1-6-1l-494-84c-7-1-13-2-20-4h0c-3 0-5-1-8-1-75-18-97-86-97-127v-48c-1-5-1-10-1-15v-375c0-69 56-125 125-125h625c69 0 125 56 125 125v375c0 69-56 125-125 125z m-93-375c-35 0-63 28-63 63s28 62 63 62 62-28 62-62-28-63-62-63z" horiz-adv-x="1000" />

<glyph glyph-name="phone" unicode="&#xe88c;" d="M746 264c110-22 184-80 225-173 6-15 5-33-4-48-28-50-60-98-95-143-13-18-34-27-55-25-184 21-373 111-527 265s-244 343-265 527c-2 21 8 42 25 55 45 35 93 67 143 95 15 9 33 10 48 4 93-41 151-115 173-225 3-17-2-35-13-49l-81-97c-16-19-19-44-8-64 55-94 130-169 224-224 20-11 45-8 64 8l97 81c14 11 32 16 49 13z" horiz-adv-x="1000" />

<glyph glyph-name="graph" unicode="&#xe88d;" d="M944-105h-171c-18 0-32 14-32 32v577c0 17 14 31 32 31h171c17 0 31-14 31-31v-577c0-18-14-32-31-32z m-360 0h-171c-17 0-31 14-31 32v846c0 18 14 32 31 32h171c18 0 32-14 32-32v-846c0-18-14-32-32-32z m-356 0h-171c-18 0-32 14-32 32v307c0 17 14 31 32 31h171c17 0 31-14 31-31v-307c0-18-14-32-31-32z" horiz-adv-x="1000" />

<glyph glyph-name="growth" unicode="&#xe88e;" d="M386 825c-7 0-14-4-18-10l-158-226c-7-10-5-24 6-31 3-3 8-4 13-4h67v-656c0-13 11-23 23-23h136c12 0 22 10 22 23v656h68c13 0 23 10 23 22 0 5-2 9-4 13l-158 226c-5 7-12 10-20 10z m159-362c-12 0-22-10-22-22v-543c0-13 10-23 22-23h136c13 0 23 10 23 23v543c0 12-10 22-23 22h-136z m-452-226c-13 0-23-10-23-23 0 0 0 0 0 0v-316c0-13 10-23 23-23h0 136c12 0 22 10 22 23v316c0 13-10 23-22 23z m679-45c-13 0-23-10-23-23v0-271c0-13 10-23 23-23h0 135c13 0 23 10 23 23v271c0 13-10 23-23 23 0 0 0 0 0 0z" horiz-adv-x="1000" />

<glyph glyph-name="poker" unicode="&#xe88f;" d="M361 415l-23 22-113 113a29 29 0 0 1-41 0l-112-112-23-23a94 94 0 0 1 117-146l-13-69a22 22 0 0 1 22-26h60a23 23 0 0 1 22 26l-13 69a94 94 0 0 1 117 13 93 93 0 0 1 0 133z m-17 370a94 94 0 0 0 133 0l23-23 23 23a94 94 0 0 0 133 0 93 93 0 0 0 0-132l-23-23-113-112a29 29 0 0 0-40 0l-113 112-23 23a94 94 0 0 0 0 132z m331-729a17 17 0 0 1 0 29 454 454 0 0 0-161 161 17 17 0 0 1-28 0 461 461 0 0 0-161-161 17 17 0 0 1 0-29 453 453 0 0 0 161-161 17 17 0 0 1 28 0 456 456 0 0 0 161 161z m208 379h-2a96 96 0 1 1-181 0 96 96 0 1 1 44-183l-9-50a26 26 0 0 1 25-31h70a26 26 0 0 1 25 31l-9 50a96 96 0 1 1 37 183z" horiz-adv-x="1000" />

<glyph glyph-name="qr" unicode="&#xe890;" d="M1000 235v-112c0-21-17-39-39-39h-109c-22 0-39 18-39 39s17 40 39 40h70v72c0 21 17 39 39 39s39-18 39-39z m-539 191c22 0 39 18 39 39v88h39c22 0 39 18 39 39v219c0 22-18 40-40 39-21-1-38-19-38-40v-30h-39c-22 0-39-18-39-39s17-39 39-39h39v-71h-39c-22 0-39-17-39-39v-127c0-21 17-39 39-39z m-422-152c22 0 39 17 39 39v39h41c22 0 39 17 39 39s-17 39-39 39h-80c-21 0-39-17-39-39v-78c0-22 18-39 39-39z m578 78h106v-116c0-21 16-39 37-40 23-1 41 17 41 39v39h41c21 0 39 17 39 39s-18 39-39 39h-41v39c0 22-18 39-39 39h-145c-21 0-39-17-39-39s18-39 39-39z m344 78c-22 0-39-17-39-39s17-39 39-39 39 17 39 39-17 39-39 39z m-344-156c-21 0-39-18-39-39v-72h-19c-22 0-39-18-39-40s17-39 39-39h58c22 0 39 18 39 39v112c0 21-17 39-39 39z m0-346h-39v39c0 22-17 39-39 39h-39v39c0 22-17 39-39 39s-39-17-39-39v-78c0-21 17-39 39-39h39v-39c0-22 18-39 39-39h78c22 0 39 17 39 39s-17 39-39 39z m156 78c0 22-17 39-39 39h-19c-22 0-39-17-39-39s17-39 39-39h19c22 0 39 18 39 39z m188-78h-31v39c0 22-18 39-39 39s-39-17-39-39v-39h-79c-21 0-39-17-39-39s18-39 39-39h188c22 0 39 17 39 39s-17 39-39 39z m-500 274c22 0 39 17 39 39v72c0 22-17 39-39 39h-141v38c0 21-16 39-37 40-22 1-41-17-41-39v-39h-19c-22 0-39-17-39-39s17-39 39-39h199v-33c0-22 17-39 39-39z m-461 414v117c0 64 53 117 117 117h117c65 0 118-53 118-117v-117c0-65-53-118-118-118h-117c-64 0-117 53-117 118z m78 0c0-22 18-39 39-39h117c22 0 39 17 39 39v117c0 21-17 39-39 39h-117c-21 0-39-18-39-39z m98 19c21 0 39 18 39 39s-18 39-39 39-39-17-39-39 17-39 39-39z m824 98v-117c0-65-53-118-117-118h-117c-65 0-118 53-118 118v117c0 64 53 117 118 117h117c64 0 117-53 117-117z m-78 0c0 21-18 39-39 39h-117c-22 0-39-18-39-39v-117c0-22 17-39 39-39h117c21 0 39 17 39 39z m-98-20c-21 0-39-17-39-39s18-39 39-39 39 18 39 39-17 39-39 39z m-472-629v-117c0-64-53-117-118-117h-117c-64 0-117 53-117 117v117c0 65 53 118 117 118h117c65 0 118-53 118-118z m-79 0c0 22-17 39-39 39h-117c-21 0-39-17-39-39v-117c0-21 18-39 39-39h117c22 0 39 18 39 39z m-97-19c-22 0-39-18-39-39s17-39 39-39 39 17 39 39-18 39-39 39z m0 0" horiz-adv-x="1000" />

<glyph glyph-name="home-1" unicode="&#xe891;" d="M500 194a94 94 0 0 1-94-94v-198h188v198a94 94 0 0 1-94 94z m389 301l-291 234a156 156 0 0 1-196 0l-291-234a156 156 0 0 1-59-122v-315a156 156 0 0 1 156-156h136v198a156 156 0 0 0 312 0v-198h136a156 156 0 0 1 156 156v315a156 156 0 0 1-59 122z" horiz-adv-x="1000" />

<glyph glyph-name="hot-sale33" unicode="&#xe892;" d="M598 188c-8 0-17-7-17-33 0-26 9-33 17-33s17 7 17 33c0 26-8 33-17 33z m-197 127c-8 0-17-7-17-33 0-26 9-34 17-34 8 0 17 8 17 34 0 26-9 33-17 33z m391 181c-85 93-135 176-162 228-30 57-39 92-40 93l-8 33-32-14c-4-2-90-41-139-139-25-49-29-103-29-140 0-22-15-40-37-45-14-2-30 2-40 13l-59 58-20-27c-2-3-51-71-60-85-44-66-67-143-66-223 0-107 42-206 118-281 75-75 175-116 282-116 220 0 400 179 400 400 0 80-40 169-108 245z m-194-416c-41 0-71 27-71 75 0 48 30 75 71 75s72-27 72-75c0-48-31-75-72-75z m-39 273h65l-184-269h-65l184 269z m-229-71c0 48 30 75 71 75s72-27 72-75c0-48-31-75-72-75s-71 27-71 75z" horiz-adv-x="1000" />

<glyph glyph-name="qr-code2" unicode="&#xe893;" d="M797 194h-124c-9 0-16-7-16-16v-124c0-9 7-16 16-16h124c9 0 16 7 16 16v124c0 9-7 16-16 16z m-156 125h-93c-9 0-16-7-16-16v-94c0-8 7-15 16-15h93c9 0 16 7 16 15v94c0 9-7 16-16 16z m281-281h-94c-8 0-15-7-15-16v-93c0-9 7-16 15-16h94c9 0 16 7 16 16v93c0 9-7 16-16 16z m0 281h-62c-9 0-16-7-16-16v-62c0-9 7-16 16-16h62c9 0 16 7 16 16v62c0 9-7 16-16 16z m-312-312h-62c-9 0-16-7-16-16v-62c0-9 7-16 16-16h62c9 0 16 7 16 16v62c0 9-7 16-16 16z m187 655h-124c-9 0-16-7-16-16v-125c0-8 7-15 16-15h124c9 0 16 7 16 15v125c0 9-7 16-16 16z m-265 62c0 35 28 62 63 62h280c35 0 63-27 63-62v-281c0-34-28-62-63-62h-280c-35 0-63 28-63 62z m343 0h-280v-281h280z m-546-62h-124c-9 0-16-7-16-16v-125c0-8 7-15 16-15h124c9 0 16 7 16 15v125c0 9-7 16-16 16z m-265 62c0 35 28 62 63 62h280c35 0 63-27 63-62v-281c0-34-28-62-63-62h-280c-35 0-63 28-63 62z m343 0h-280v-281h280z m-78-530h-124c-9 0-16-7-16-16v-124c0-9 7-16 16-16h124c9 0 16 7 16 16v124c0 9-7 16-16 16z m-265 62c0 35 28 63 63 63h280c35 0 63-28 63-63v-281c0-34-28-62-63-62h-280c-35 0-63 28-63 62z m343 0h-280v-281h280z" horiz-adv-x="1000" />

<glyph glyph-name="responsive" unicode="&#xe894;" d="M667 850h-584c-45 0-83-37-83-83v-834c0-46 38-83 83-83h417v583c0 92 75 167 167 167h83v167c0 46-37 83-83 83z m-292-917h-83c-23 0-42 19-42 42s19 42 42 42h83c23 0 42-19 42-42s-19-42-42-42z m542 584h-250c-46 0-84-38-84-84v-500c0-46 38-83 84-83h250c46 0 83 37 83 83v500c0 46-37 84-83 84z m-125-584c-23 0-42 19-42 42s19 42 42 42c23 0 41-19 41-42s-18-42-41-42z" horiz-adv-x="1000" />

<glyph glyph-name="receipt" unicode="&#xe895;" d="M781 788h-562a31 31 0 0 1-31-32v-812a31 31 0 0 1 48-26l77 51 76-51a31 31 0 0 1 35 0l76 51 76-51a31 31 0 0 1 35 0l77 51 76-51a31 31 0 0 1 49 26v812a31 31 0 0 1-32 32z m-406-188h188a31 31 0 0 0 0-62h-188a31 31 0 0 0 0 62z m219-375h-219a31 31 0 0 0 0 63h219a31 31 0 0 0 0-63z m62 156h-281a31 31 0 0 0 0 63h281a31 31 0 0 0 0-63z" horiz-adv-x="1000" />

<glyph glyph-name="iphone" unicode="&#xe896;" d="M440 850h-333c-59 0-107-48-107-106v-788c0-59 48-107 107-107h333c59 0 106 48 106 107v788c0 58-47 106-106 106z m-167-910c-25 0-45 21-45 46 0 25 20 45 45 45 25 0 46-20 46-45 0-25-21-46-46-46z m69 774h-137c-12 0-23 10-23 22s11 23 23 23h137c12 0 22-10 22-23s-10-22-22-22z m0 0" horiz-adv-x="1000" />

<glyph glyph-name="laptop" unicode="&#xe897;" d="M569 83h-138c-26 0-48 15-58 37-2 5-7 7-12 7h-318c-10 0-18-8-18-18v-52c0-22 18-39 39-39h872c21 0 39 17 39 39v52c0 10-8 18-18 18h-318c-5 0-10-2-12-7-10-22-32-37-58-37z m-168 73c0-16 14-29 30-29h138c16 0 30 13 30 29 1 9 8 16 17 16h300v478c0 18-15 32-33 32h-766c-18 0-33-14-33-32v-478h300c9 0 16-7 17-16z" horiz-adv-x="1000" />

<glyph glyph-name="lightning" unicode="&#xe898;" d="M778 497h-225l73 303a40 40 0 0 1-39 50h-250a40 40 0 0 1-39-31l-120-496a40 40 0 0 1 39-50h217l-89-367a45 45 0 0 1 44-56h28a45 45 0 0 1 38 20l361 558a45 45 0 0 1-38 69z" horiz-adv-x="1000" />

<glyph glyph-name="responsivetelandcomp" unicode="&#xe899;" d="M614 32v45h-182v-45c0-25-21-46-46-46h-45c-14 0-23-9-23-22l0 0c0-14 9-23 23-23h364c13 0 22 9 22 23l0 0c0 13-9 22-22 22h-46c-25 0-45 21-45 46z m-182 45v-22h114c13 0 22-9 22-23l0 0c0-14 9-23 23-23h11c7 0 12 5 12 12v34 22h-182z m273-136h-364c-14 0-23 9-23 23h409c0-14-9-23-22-23z m250 136h-819c-25 0-45 21-45 46v591c0 25 20 45 45 45h819c25 0 45-20 45-45v-591c0-25-20-46-45-46z m45 137h-909v500c0 25 20 45 45 45h819c25 0 45-20 45-45v-500z m-727-273h-227c-25 0-46 20-46 45v455c0 25 21 45 46 45h227c25 0 45-20 45-45v-455c0-25-20-45-45-45z m0 0h-227c-25 0-46 20-46 45v455c0 25 21 45 46 45h227c25 0 45-20 45-45v-455c0-25-20-45-45-45z m23 539v-494c0-13-10-22-23-22h-266c7-14 23-23 39-23h227c25 0 45 20 45 45v455c0 16-9 32-22 39z m-103-62h-68c-7 0-11 5-11 12s4 11 11 11h68c7 0 12-5 12-11s-5-12-12-12z m-170-377c0-20-9-41-23-55l0 0v455l0 0c14-14 23-34 23-55v-345z m886 241h-182l205 204v-181c0-14-9-23-23-23z m-695 454c-21 0-41 10-55 23l0 0h455l0 0c-14-13-34-23-55-23h-345z m150-477h-46v182l0 0c25 0 46-20 46-45v-137z" horiz-adv-x="1000" />

<glyph glyph-name="link" unicode="&#xe89a;" d="M610 460c-12 12-25 23-39 32-38 24-81 37-126 37-62 0-121-25-165-69l-212-212c-43-44-68-103-68-165 0-128 104-233 233-233 62 0 121 24 165 68l175 175c3 3 5 7 5 12 0 9-8 17-17 17h-6c-37-1-73 6-107 20-6 3-14 1-18-3l-126-126c-39-40-102-40-142 0-39 39-39 102 0 141l213 213c39 39 103 39 142 0 26-25 67-25 93 0 12 11 18 26 20 42 1 19-6 38-20 51z m322 322c-91 91-239 91-330 0l-175-175c-5-5-6-12-4-18 3-7 9-11 16-10h6c37 0 73-7 107-21 6-3 13-1 18 3l125 126c39 39 103 39 142 0 39-39 39-103 0-142l-156-156-2-1-54-55c-40-39-103-39-142 0-26 25-67 25-93 0-12-11-19-26-20-42-1-19 6-38 20-52 19-19 41-35 66-46 4-2 7-3 11-5 3-1 7-3 10-4 4-1 8-2 11-3l10-3c7-2 13-3 20-4 8-1 17-2 25-3h12 1l10 2c3 0 7 1 11 1h6l12 1 5 1 10 2h1c41 11 79 32 109 62l212 212c91 91 91 239 0 330z" horiz-adv-x="1000" />

<glyph glyph-name="route-1" unicode="&#xe89b;" d="M575 233l-235 186c-25 20-26 47-19 67 6 19 25 40 56 40h115c15 0 28 12 28 28s-13 28-28 28h-115c-50 0-93-31-110-78-16-47-1-98 38-129l235-186c25-20 27-47 20-67s-25-40-57-40h-102c-16 0-28-13-28-28s12-28 28-28h102c50 0 94 30 110 78 16 47 2 98-38 129z m193 524c-93 0-169-77-169-172 0-84 73-163 124-208 26-23 65-23 91 0 50 45 124 124 124 208 0 95-76 172-170 172z m28-171c0-16-12-28-28-28s-28 12-28 28v3c0 16 13 28 28 28s28-12 28-28z" horiz-adv-x="1000" />

<glyph glyph-name="telephone" unicode="&#xe89c;" d="M760 189c-32 32-73 32-106 0-24-25-49-50-73-75-7-6-13-8-21-3-16 8-33 16-48 25-72 45-132 103-186 169-26 32-49 67-66 106-3 8-3 13 4 20 25 23 49 48 73 73 34 34 34 74 0 108-19 20-39 39-58 58-20 20-40 40-60 60-33 32-74 32-106 0-25-25-49-50-74-74-24-22-36-49-38-81-4-52 9-101 26-149 37-98 93-186 160-266 92-109 201-195 328-257 58-28 117-49 182-53 45-2 83 9 114 44 22 23 45 45 68 68 33 34 33 74 0 108-39 39-79 79-119 119z m-39 165l76 13c-12 71-45 135-96 186-53 53-121 87-195 97l-11-77c58-8 110-34 151-75 40-40 65-89 75-144z m120 334c-89 89-201 145-325 162l-11-77c107-15 204-64 281-140 72-73 120-164 137-265l77 13c-20 117-75 223-159 307z" horiz-adv-x="1000" />

<glyph glyph-name="visibility" unicode="&#xe89d;" d="M500 486c-75 0-136-61-136-136s61-136 136-136 136 61 136 136-61 136-136 136z m0 205c-227 0-421-141-500-341 79-199 273-341 500-341 228 0 421 142 500 341-79 200-272 341-500 341z m0-568c-125 0-227 102-227 227s102 227 227 227 227-101 227-227-101-227-227-227z" horiz-adv-x="1000" />

<glyph glyph-name="share" unicode="&#xe89e;" d="M750 350c-75 0-142-33-188-85l-159 97c9 23 14 46 14 71 0 17-3 33-6 48l211 97c30-37 76-61 128-61 92 0 167 74 167 166 0 92-75 167-167 167-92 0-167-75-167-167 0-10 2-20 3-29l-210-98c-38 52-99 86-168 86-115 0-208-94-208-209 0-115 93-208 208-208 60 0 114 26 152 66l158-97c-11-29-18-61-18-94 0-138 112-250 250-250 138 0 250 112 250 250 0 138-112 250-250 250z" horiz-adv-x="1000" />

<glyph glyph-name="share2" unicode="&#xe89f;" d="M971 479c0-9-4-18-12-24l-340-281c-9-8-22-9-33-4-11 5-18 16-18 28v113c-218-14-404-165-460-379-3-13-16-23-30-23s-27 10-30 23c-12 47-19 96-19 144 0 153 60 296 167 403 100 101 231 159 372 166v115c0 12 7 23 18 28 11 5 24 4 33-4l340-281c8-6 12-15 12-24z" horiz-adv-x="1000" />

<glyph glyph-name="analysis" unicode="&#xe8a0;" d="M625 631v-250a63 63 0 0 0-62-62h-32v-375a31 31 0 0 0-62 0v375h-31a63 63 0 0 0-63 62v250a63 63 0 0 0 63 63h31v62a31 31 0 0 0 62 0v-62h32a63 63 0 0 0 62-63z m250-250h-31v375a31 31 0 0 1-63 0v-375h-31a63 63 0 0 1-62-62v-250a63 63 0 0 1 62-63h31v-62a31 31 0 0 1 63 0v62h31a63 63 0 0 1 63 63v250a63 63 0 0 1-63 62z m-625 94h-31v281a31 31 0 0 1-63 0v-281h-31a63 63 0 0 1-62-62v-250a63 63 0 0 1 62-63h31v-156a31 31 0 0 1 63 0v156h31a63 63 0 0 1 63 63v250a63 63 0 0 1-63 62z" horiz-adv-x="1000" />

<glyph glyph-name="list2" unicode="&#xe8a1;" d="M500 600a42 42 0 0 0 0 83h417a42 42 0 0 0 0-83z m0-167a42 42 0 0 0 0 84h167a42 42 0 0 0 0-84z m0-250a42 42 0 0 0 0 84h417a42 42 0 0 0 0-84z m0-166a42 42 0 0 0 0 83h167a42 42 0 0 0 0-83z" horiz-adv-x="1000" />

<glyph glyph-name="shopping-bag" unicode="&#xe8a2;" d="M158 553h58v-58c0-17-13-30-29-30s-29 13-29 30v58h-86c-21 0-38-16-39-37l-33-584c-2-44 33-82 78-82h317c-17 25-26 56-24 88l23 329c2 25 13 48 31 65s42 26 67 26h134l-9 158c-1 21-18 37-39 37h-77v125c0 95-77 172-171 172s-172-77-172-172z m58 125c0 63 51 113 114 113s113-50 113-113v-125h58v-58c0-17-13-30-29-30s-29 13-29 30v58h-227z m784-744l-23 329c-2 20-19 36-39 36h-446c-21 0-38-16-39-36l-23-329c-4-46 32-84 77-84h415c45 0 81 38 78 84z m-176 213c0-63-51-113-113-113-62 0-113 50-113 113v35c0 16 13 29 29 29s29-13 29-29v-35c0-30 25-55 55-55 30 0 54 25 54 55v35c0 16 13 29 30 29s29-13 29-29z" horiz-adv-x="1000" />

<glyph glyph-name="attach" unicode="&#xe8a3;" d="M906 730c-124 124-327 124-452 0l-387-388c-89-89-89-234 0-323 44-44 103-67 161-67 59 1 117 23 162 67l355 356c53 53 53 140 0 193-53 54-140 54-194 0l-232-232c-18-18-18-47 0-65 18-17 47-17 64 0l233 233c18 18 47 18 64 0 18-18 18-47 0-65l-355-355c-53-53-140-53-194 0-53 53-53 140 0 194l388 387c89 89 234 89 323 0 43-43 67-100 67-161 0-61-24-119-67-162l-388-387c-18-18-18-47 0-65 9-9 21-13 33-13 11 0 23 4 32 13l387 388c61 60 94 140 94 226 0 85-33 165-94 226z" horiz-adv-x="1000" />

<glyph glyph-name="audit" unicode="&#xe8a4;" d="M625 6a260 260 0 0 0 0 521 258 258 0 0 0 115-27v183a73 73 0 0 1-73 73h-500a73 73 0 0 1-73-73v-666a73 73 0 0 1 73-73h500a73 73 0 0 1 73 73v3l-10 9a262 262 0 0 0-105-23z m-375 584h333a31 31 0 0 0 0-63h-333a31 31 0 0 0 0 63z m0-167h83a31 31 0 0 0 0-63h-83a31 31 0 0 0 0 63z m83-229h-83a31 31 0 0 0 0 62h83a31 31 0 0 0 0-62z m564-199a31 31 0 0 0-44 0l-112 112a199 199 0 1 0 44 44l112-112a31 31 0 0 0 0-44z" horiz-adv-x="1000" />

<glyph glyph-name="bank" unicode="&#xe8a5;" d="M949 541h-898c-14 0-26 11-26 26v97c0 11 8 21 19 25l449 134c5 2 10 2 15 0l449-134c11-4 18-14 18-25v-97c0-15-12-26-26-26z m-850-95h138c14 0 26-12 26-26v-328c0-15-12-26-26-26h-138c-15 0-26 11-26 26v328c0 14 11 26 26 26z m332 0h138c14 0 26-12 26-26v-328c0-15-12-26-26-26h-138c-14 0-26 11-26 26v328c0 14 12 26 26 26z m333 0h138c14 0 26-12 26-26v-328c0-15-12-26-26-26h-138c-15 0-26 11-26 26v328c0 14 11 26 26 26z m-713-475h898c14 0 26-12 26-26v-44c0-14-12-25-26-25h-898c-14 0-26 11-26 25v44c0 14 12 26 26 26z" horiz-adv-x="1000" />

<glyph glyph-name="block" unicode="&#xe8a6;" d="M500-125c262 0 475 213 475 475s-213 475-475 475-475-213-475-475 213-475 475-475z m356 475c0-197-159-356-356-356-77 0-148 25-207 66l497 497c41-59 66-130 66-207z m-356 356c77 0 148-25 207-66l-497-497c-41 59-66 130-66 207 0 197 159 356 356 356z" horiz-adv-x="1000" />

<glyph glyph-name="bookmark-1" unicode="&#xe8a7;" d="M750 798h-500a115 115 0 0 1-115-115v-637a93 93 0 0 1 49-82 93 93 0 0 1 95 3l216 134a11 11 0 0 0 11 0l215-134a94 94 0 0 1 144 79v637a115 115 0 0 1-115 115z m-125-385h-83v-84a42 42 0 0 0-84 0v84h-83a42 42 0 0 0 0 83h83v83a42 42 0 0 0 84 0v-83h83a42 42 0 0 0 0-83z" horiz-adv-x="1000" />

<glyph glyph-name="building" unicode="&#xe8a8;" d="M420 791v-124h-321c-19 0-34-15-34-34v-724c0-19 15-34 34-34h802c19 0 34 15 34 34v882c0 19-15 34-34 34h-447c-19 0-34-15-34-34z m198-837h-118v223c0 8-7 15-15 15h-207c-9 0-15-7-15-15v-223h-119v634h474v-634z m-380 574h90c8 0 14-7 14-15v-63c0-8-6-14-14-14h-90c-8 0-15 6-15 14v63c0 8 7 15 15 15z m197 0h90c8 0 14-7 14-15v-63c0-8-6-14-14-14h-90c-8 0-15 6-15 14v63c0 8 7 15 15 15z m-197-164h90c8 0 14-7 14-15v-63c0-8-6-15-14-15h-90c-8 0-15 7-15 15v63c0 8 7 15 15 15z m197 0h90c8 0 14-7 14-15v-63c0-8-6-15-14-15h-90c-8 0-15 7-15 15v63c0 8 7 15 15 15z" horiz-adv-x="1000" />

<glyph glyph-name="smartphone" unicode="&#xe8a9;" d="M702 850h-404c-38 0-70-31-70-70v-860c0-38 31-70 70-70h405c38 0 70 31 70 70v860c-1 39-32 70-71 70z m-202-55c11 0 20-9 20-20s-9-20-20-20c-11 0-20 9-20 20s9 20 20 20z m60-890h-120v40h120v-40z m172 96h-465v698h465v-698z" horiz-adv-x="1000" />

<glyph glyph-name="calendar" unicode="&#xe8aa;" d="M975 683c0 26-21 47-47 47h-143v37c0 10-8 18-18 18h-59c-10 0-18-8-18-18v-37h-380v37c0 10-8 18-18 18h-59c-10 0-18-8-18-18v-37h-142c-27 0-48-21-48-47v-123h950v123z m-950-198v-523c0-28 19-47 48-47h855c28 0 47 19 47 47v523z m224-427h-68c-7 0-13 6-13 13v68c0 7 6 14 13 14h68c7 0 14-7 14-14v-68c0-7-7-13-14-13z m0 190h-68c-7 0-13 6-13 13v68c0 7 6 14 13 14h68c7 0 14-7 14-14v-68c0-7-7-13-14-13z m190-190h-68c-7 0-13 6-13 13v68c0 7 6 14 13 14h68c7 0 14-7 14-14v-68c0-7-7-13-14-13z m0 190h-68c-7 0-13 6-13 13v68c0 7 6 14 13 14h68c7 0 14-7 14-14v-68c0-7-7-13-14-13z m190-190h-68c-7 0-13 6-13 13v68c0 7 6 14 13 14h68c7 0 14-7 14-14v-68c0-7-7-13-14-13z m0 190h-68c-7 0-13 6-13 13v68c0 7 6 14 13 14h68c7 0 14-7 14-14v-68c0-7-7-13-14-13z m190-190h-68c-7 0-13 6-13 13v68c0 7 6 14 13 14h68c7 0 14-7 14-14v-68c0-7-7-13-14-13z m0 190h-68c-7 0-13 6-13 13v68c0 7 6 14 13 14h68c7 0 14-7 14-14v-68c0-7-7-13-14-13z" horiz-adv-x="1000" />

<glyph glyph-name="social-media" unicode="&#xe8ab;" d="M379 538c34 0 62-28 62-63v-156c0-34-28-62-62-62h-46l-53-80c-6-9-16-14-26-14s-21 5-26 14l-54 80h-45c-35 0-63 28-63 62v156c0 35 28 63 63 63z m187-327c0 34 19 66 50 82 30 17 67 15 96-4l153-102c26-18 42-47 42-78 0-32-16-61-42-78l-153-102c-29-20-66-21-96-5-31 16-50 48-50 83z m222 234l-1 0c-17-20-43-32-70-32s-52 12-70 32c-30 33-67 78-92 123-19 35-30 69-30 100 0 66 53 120 119 120 28 0 53-10 73-25 21 15 46 25 74 25 66 0 119-54 119-120 0-31-12-65-31-100-25-45-61-90-91-123z" horiz-adv-x="1000" />

<glyph glyph-name="call" unicode="&#xe8ac;" d="M436 286c68-64 161-137 241-60a112 112 0 0 0 159 0c35-38 101-85 97-144a113 113 0 0 0-33-85c-200-180-403-24-595 158-181 192-338 395-158 595a113 113 0 0 0 85 33c59 4 106-62 144-97a112 112 0 0 0 0-159c-77-80-4-172 60-241z" horiz-adv-x="1000" />

<glyph glyph-name="camera" unicode="&#xe8ad;" d="M714 635l-77 77c-12 12-27 18-43 18h-188c-16 0-31-6-43-18l-77-77h-166c-52 0-95-42-95-95v-475c0-52 43-95 95-95h760c53 0 95 43 95 95v475c0 53-42 95-95 95z m-214-570c-131 0-238 106-238 238s107 237 238 237 238-106 238-237-107-238-238-238z m170 237c0-94-76-170-170-170s-170 76-170 170c0 94 76 171 170 171 26 0 51-6 73-17-3 1-6 1-9 1-35 0-64-28-64-64 0-35 29-63 64-63s63 28 63 63c0 11-3 22-7 31 31-31 50-74 50-122z" horiz-adv-x="1000" />

<glyph glyph-name="speedometer" unicode="&#xe8ae;" d="M471 781c-113-6-219-50-304-125l131-131c49 41 109 66 173 71z m-214-297l-131 130c-75-84-119-190-126-303h185c6 64 31 123 72 173z m558-173h185c-6 113-50 219-126 303l-131-130c41-50 66-109 72-173z m0-59c-4-45-17-82-32-113 15-23 27-42 35-55 23-35 18-80-12-109-7-7-15-13-24-17l31-31c5-6 13-8 20-8 8 0 15 2 21 8 88 88 139 203 146 325z m-630 0h-185c7-122 58-237 146-325 6-6 13-8 21-8s15 2 20 8l89 89c12 12 12 30 0 42-23 23-81 88-91 194z m648 404c-85 75-191 119-304 125v-185c64-5 124-30 173-71z m-268-310c-36 36-94 36-130 0s-36-94 0-130c45-45 268-188 293-204 12-7 27-5 37 4 10 10 11 25 4 37-16 25-159 248-204 293z" horiz-adv-x="1000" />

<glyph glyph-name="click" unicode="&#xe8af;" d="M831 589c-21 44-75 62-119 40-28-14-46-41-48-70l-1 2c-22 43-76 62-119 40-29-14-46-42-49-71l-1 3c-22 43-76 61-119 40-29-15-46-42-48-71l-133 267c-11 21-29 36-52 45-23 8-47 6-68-4-43-22-61-76-40-119l246-493c2-5 1-10-2-13-3-3-8-5-13-3l-121 40c-41 14-86-4-107-41-12-21-14-49-7-73 8-24 27-44 49-54l322-144c92-41 196-38 286 6l125 63c71 35 123 95 148 169 25 75 19 154-16 225z" horiz-adv-x="1000" />

<glyph glyph-name="manual-transmission" unicode="&#xe8b0;" d="M1000 733c0 67-55 120-122 117-59-3-108-51-111-110-3-49 25-92 66-112v-161c0-37-29-67-66-67h-162c-11 24-31 44-55 55v173c41 20 69 63 67 112-4 59-52 107-111 110-67 3-123-50-123-117 0-46 28-86 67-105v-173c-24-11-44-31-55-55h-228v228c41 20 69 63 66 112-3 59-51 107-111 110-67 3-122-50-122-117 0-46 27-86 67-105v-556c-42-19-70-63-67-112 4-59 52-107 111-110 67-3 122 50 122 117 0 46-27 86-66 105v228h228c11-24 31-44 55-55v-173c-41-19-69-63-66-112 3-59 51-107 111-110 66-3 122 50 122 117 0 46-28 86-67 105v173c24 11 44 31 55 55h162c92 0 166 75 166 167v161c40 19 67 59 67 105z" horiz-adv-x="1000" />

<glyph glyph-name="maximize" unicode="&#xe8b1;" d="M83 725c0 23 19 42 42 42h358v-84h-316v-666h666v312h84v-354c0-23-19-42-42-42h-750c-23 0-42 19-42 42z m284-448l168 168 59-59-168-167z m72 13h164v-84h-206c-23 0-42 19-42 42v206h84z m186 477c-23 0-42-19-42-42v-250c0-23 19-42 42-42h250c23 0 42 19 42 42v250c0 23-19 42-42 42z" horiz-adv-x="1000" />

<glyph glyph-name="stop" unicode="&#xe8b2;" d="M707 850h-207l-21-500 21-500h207l293 293v414z m-414 0l-293-293v-414l293-293h207v1000z m390-59h-183l-21-441 21-441h183l258 258v366z m-366 0l-258-258v-366l258-258h183v882z m-129-563c-33 0-64 14-85 37l44 39c10-11 25-17 41-17 15 0 24 9 25 15 1 3 2 10-14 16-10 4-18 5-25 7-11 3-23 6-36 14-23 16-31 42-31 61 1 29 21 55 50 66 48 18 88-11 111-28l-35-47c-34 25-45 24-56 20-8-3-11-9-11-13 0-3 1-8 4-9 5-3 8-4 18-7 8-2 18-4 32-9 37-14 57-46 51-81-6-37-41-64-83-64z m264 242h-158v-59h49v-181h59v181h50z m366 0h-79v-240h58v79c8 0 16 0 21 0 45 0 82 36 82 80s-37 81-82 81z m0-102c-5 0-12 0-20 0 0 8-1 34-1 43h21c13 0 23-10 23-22s-10-21-23-21z m-235-138c-66 0-120 54-120 120s54 120 120 120c66 0 120-54 120-120s-54-120-120-120z m0 181c-34 0-61-27-61-61s27-61 61-61c34 0 61 27 61 61s-27 61-61 61z" horiz-adv-x="1000" />

<glyph glyph-name="measure" unicode="&#xe8b3;" d="M65 390c-43-75-65-160-65-246 0-16 13-29 29-29h236c16 0 29 13 29 29 0 62 27 119 73 158l-156 250c-60-43-110-98-146-162z m435 254c-84 0-166-21-240-61l157-250c26 11 54 17 83 17s57-6 83-17l157 250c-73 40-156 61-240 61z m435-254c-36 64-86 119-146 162l-156-250c46-39 73-96 73-158 0-16 13-29 29-29h236c16 0 29 13 29 29 0 86-22 171-65 246z m-331-158c-1 0-27 2-57 2-60 1-81-7-91-14-20-11-35-30-41-53-6-23-3-47 9-67 11-20 30-35 53-41 8-2 16-3 23-3 15 0 31 4 44 12 11 6 28 20 58 72 15 26 26 49 26 50 5 9 4 19-1 28s-13 13-23 14z" horiz-adv-x="1000" />

<glyph glyph-name="street-view" unicode="&#xe8b4;" d="M592 621h-184c-27 0-49-22-49-49v-207c0-26 20-47 46-49l28-228c2-14 15-25 29-25h76c15 0 27 11 29 25l28 228c26 2 46 23 46 49v207c0 27-22 49-49 49z m331-458c-26 23-62 44-106 61-9 3-17 7-27 9-31 11-64-12-64-46 0-21 14-39 34-46 7-3 15-5 22-8 63-25 92-54 92-70s-28-46-92-71c-75-29-175-44-282-44s-207 15-281 44c-64 25-93 54-93 71s29 45 93 70c7 3 14 5 21 8 20 7 34 25 34 46 0 34-33 57-64 46-9-2-18-6-27-9-44-17-80-38-106-61-40-38-49-75-49-100s9-63 49-100c26-24 62-44 106-62 86-33 198-51 317-51s231 18 317 51c44 18 80 38 106 62 41 37 49 75 49 100s-9 62-49 100z" horiz-adv-x="1000" />

<glyph glyph-name="clipboard2" unicode="&#xe8b5;" d="M635 696v-62c0-17-14-31-32-31h-206c-18 0-32 14-32 31v62c0 17 14 31 32 31h16c-1 4-1 7-1 10 0 49 40 88 88 88s88-39 88-88c0-3 0-6-1-10h16c18 0 32-14 32-31z m104-17h-48v-45c0-48-39-88-88-88h-206c-49 0-88 40-88 88v45h-48c-54 0-98-44-98-98v-608c0-54 44-98 98-98h478c54 0 98 44 98 98v608c0 54-44 98-98 98z" horiz-adv-x="1000" />

<glyph glyph-name="street-view2" unicode="&#xe8b6;" d="M639 109l-9-53c-9-54-56-94-111-94h-37c-56 0-103 40-112 94l-9 53c-79-19-132-52-132-91 0-58 121-106 271-106s271 48 271 106c0 39-53 72-132 91z m82 222c0 67-40 124-98 150-34-26-77-42-123-42s-89 16-123 42c-58-26-98-83-98-150v-40c0-18 12-33 29-36 27-5 56-10 87-13l30-176c5-28 29-48 57-48h36c28 0 52 20 57 48l30 176c31 3 60 8 87 13 17 3 29 18 29 36z" horiz-adv-x="1000" />

<glyph glyph-name="diamond" unicode="&#xe8b7;" d="M25 498l385-523-163 523z m227 65l131 229h-161c-21 0-40-10-52-26l-145-203z m337-588l385 523h-221z m386 588l-145 203c-12 16-31 26-52 26h-161l131-229h227z m-433 229h-84l-131-229h345z m-227-294l185-590 185 590z" horiz-adv-x="1000" />

<glyph glyph-name="discount" unicode="&#xe8b8;" d="M934 337c-4 8-4 18 0 26l37 76c21 43 4 93-38 116l-75 39c-8 5-13 12-15 21l-15 84c-8 47-51 78-98 71l-84-12c-9-1-18 2-24 8l-61 59c-34 33-88 33-122 0l-61-59c-6-6-15-9-24-8l-84 12c-47 7-90-24-98-71l-15-84c-2-9-7-16-15-21l-75-39c-42-23-59-73-38-116l38-76c4-8 4-18 0-26l-38-76c-21-43-4-93 38-115l75-40c8-5 13-12 15-21l15-84c7-42 43-72 85-72 4 0 8 0 13 1l84 12c9 1 18-2 24-8l61-59c17-17 39-25 61-25 22 0 44 8 61 25l61 59c6 6 15 9 24 8l84-12c47-7 90 24 98 71l15 84c2 9 7 16 15 21l75 40c42 22 59 72 38 115l-37 76z m-549 273c58 0 105-48 105-106s-47-106-105-106-106 48-106 106 47 106 106 106z m-55-471c-6-5-13-8-20-8s-15 3-21 8c-11 12-11 30 0 41l381 381c11 11 30 11 41 0 11-11 11-30 0-41l-381-381z m285-48c-58 0-105 47-105 105s47 106 105 106c59 0 106-47 106-106s-47-105-106-105z m0 153c-26 0-48-21-48-48s22-48 48-48c27 0 48 22 48 48s-21 48-48 48z m-230 308c-27 0-48-22-48-48 0-27 21-48 48-48 26 0 48 21 48 48 0 26-22 48-48 48z" horiz-adv-x="1000" />

<glyph glyph-name="minimize" unicode="&#xe8b9;" d="M83 725c0 23 19 42 42 42h358v-84h-316v-666h666v312h84v-354c0-23-19-42-42-42h-750c-23 0-42 19-42 42z m488-362l-168-167-58 59 167 167z m-71-12h-165v83h207c23 0 41-18 41-41v-206h-83z m125 416c-23 0-42-19-42-42v-250c0-23 19-42 42-42h250c23 0 42 19 42 42v250c0 23-19 42-42 42z" horiz-adv-x="1000" />

<glyph glyph-name="distance-1" unicode="&#xe8ba;" d="M180 368c-99 0-180-81-180-180 0-50 27-111 82-180 38-50 76-86 78-87l20-19 20 19c2 1 40 37 78 87 55 69 82 130 82 180 0 99-81 180-180 180z m0-238c-32 0-58 26-58 58s26 58 58 58 58-26 58-58-26-58-58-58z m640 668c-99 0-180-81-180-180 0-51 28-111 82-180 38-50 77-86 78-87l20-19 20 19c2 1 40 37 79 87 54 69 81 129 81 180 0 99-81 180-180 180z m0-239c-32 0-58 27-58 59s26 58 58 58c32 0 58-26 58-58s-26-59-58-59z m-107-646h-416v59h416c43 0 78 35 78 78s-35 78-78 78h-164c-75 0-137 61-137 137s62 136 137 136h154v-58h-154c-43 0-78-35-78-78s35-78 78-78h164c75 0 137-62 137-137s-62-137-137-137z" horiz-adv-x="1000" />

<glyph glyph-name="palm-of-hand" unicode="&#xe8bb;" d="M778 639v-250c0-11-8-20-19-20s-19 9-19 20v365h-116v-327c0-11-8-19-19-19-10 0-19 8-19 19v365h-115v-365c0-11-9-19-20-19s-19 8-19 19v288h-115v-480l-78 106c-23 36-68 48-101 27-33-20-41-66-19-101 0 0 126-191 180-272s140-145 302-145c269 0 293 207 293 269s0 520 0 520h-116z" horiz-adv-x="1000" />

<glyph glyph-name="target-location" unicode="&#xe8bc;" d="M938 206c-16 0-29-12-29-28v-109c0-71-57-128-128-128h-109c-16 0-28-13-28-29s12-28 28-28h109c102 0 185 83 185 185v109c0 16-13 28-28 28z m-157 610h-109c-16 0-28-13-28-28s12-29 28-29h109c71 0 128-57 128-128v-109c0-16 13-28 29-28s28 12 28 28v109c0 102-83 185-185 185z m-718-322c15 0 28 12 28 28v109c0 71 57 128 128 128h109c16 0 28 13 28 29s-12 28-28 28h-109c-102 0-185-83-185-185v-109c0-16 13-28 29-28z m265-553h-109c-71 0-128 57-128 128v109c0 16-13 28-28 28s-29-12-29-28v-109c0-102 83-185 185-185h109c16 0 28 13 28 28s-12 29-28 29z m172 625c-102 0-184-83-184-187 0-91 80-177 134-226 29-25 71-25 100 0 55 49 134 135 134 226 0 104-82 187-184 187z m28-186c0-15-12-28-28-28s-28 13-28 28v4c0 15 13 28 28 28s28-13 28-28z" horiz-adv-x="1000" />

<glyph glyph-name="email-1" unicode="&#xe8bd;" d="M955 450c-13 51-23 97-37 144-17 47-43 87-80 121-37 33-84 63-137 80-60 20-131 30-218 30-73 0-137-10-190-30-54-23-101-50-134-84-37-36-64-77-80-120-20-47-31-94-34-141-3-10-3-26-3-43v-117c0-17 0-30 3-44 3-50 17-97 37-143 20-47 47-84 84-118 36-33 80-63 137-80 53-23 117-30 184-30 57 0 103 3 147 13 43 10 80 24 114 37 18 8 27 26 27 44 0 17-9 35-27 43l-10 4c-31 13-64 16-97 6-17-6-37-10-64-13-27-3-57-3-97-3-47 0-90 6-127 16-34 10-64 27-90 50-27 24-47 51-61 81-13 26-26 63-26 100v44c0 16-4 33-4 53 0 17 4 33 4 50 0 17 0 30 3 44 3 37 13 70 27 100 13 30 33 60 57 80 26 20 56 40 93 51 37 10 80 20 131 20 63 0 113-7 154-17 40-10 70-27 97-47 26-23 46-47 56-80 10-34 20-70 27-114 4-23 4-43 4-60 0-20 0-40-4-64 0-27-7-43-13-53-10-10-24-14-40-14-17 0-30 7-44 14-10 10-17 26-17 43v248c0 10-3 16-10 23-6 7-13 10-23 10h-74c-10 0-13-3-23-10-7-7-10-13-10-23v-10c-10 13-23 26-40 37-14 10-40 13-70 13-27 0-54-7-77-17-27-10-44-27-61-47-16-23-26-46-36-77-10-26-10-63-10-100 0-33 3-67 10-97 10-30 23-57 40-77 16-23 37-37 60-47 27-10 50-16 80-16 27 0 47 0 64 6 17 4 27 10 40 14 10 6 20 13 27 23 6 7 13 13 20 23 10-13 27-26 53-36 24-10 54-17 97-17 20 0 44 3 64 10 23 10 43 20 60 33 17 17 34 34 47 57 10 24 17 50 20 81 0 23 3 46 3 73 0 27-3 50-3 70z m-415-180c-17-17-33-27-60-27-20 0-40 10-54 27-16 16-26 43-26 80 0 40 10 67 26 84 14 16 34 26 54 26 27 0 43-10 60-26 14-17 24-47 24-84 0-40-7-64-24-80z" horiz-adv-x="1000" />

<glyph glyph-name="equalizer" unicode="&#xe8be;" d="M254 288h-52v453c0 22-18 40-40 40s-40-18-40-40v-453h-52c-25 0-45-20-45-45v-91c0-25 20-45 45-45h52v-148c0-22 18-40 40-40s40 18 40 40v148h52c25 0 45 20 45 45v91c0 25-21 45-45 45z m338 305h-52v148c0 22-18 40-40 40s-40-18-40-40v-148h-52c-25 0-45-20-45-45v-91c0-25 20-45 45-45h52v-453c0-22 18-40 40-40s40 18 40 40v453h52c25 0 45 20 45 45v91c0 25-20 45-45 45z m338-305h-52v453c0 22-18 40-40 40s-40-18-40-40v-453h-52c-25 0-45-20-45-45v-91c0-25 20-45 45-45h52v-148c0-22 18-40 40-40s40 18 40 40v148h52c25 0 45 20 45 45v91c0 25-20 45-45 45z" horiz-adv-x="1000" />

<glyph glyph-name="external-link" unicode="&#xe8bf;" d="M727-156h-559c-45 0-87 17-119 49s-49 73-49 118v559c0 45 18 87 49 119s74 49 119 49h223c31 0 56-25 56-56s-25-56-56-56h-223c-15 0-29-5-40-16s-16-25-16-40v-559c0-15 6-29 16-39 11-11 25-17 40-17h559c15 0 29 6 39 17 11 10 17 24 17 39v224c0 31 25 56 56 56s56-25 56-56v-224c0-45-18-87-49-118-32-32-74-49-119-49z m-336 335c-14 0-28 6-39 16-22 22-22 58 0 80l464 463h-201c-31 0-56 25-56 56s25 56 56 56h336c7 0 15-2 21-4 7-3 12-7 18-12 0 0 0 0 0 0 0 0 0 0 0 0 0 0 0 0 0 0 0 0 0 0 0 0 0 0 0 0 0 0 0 0 0 0 0 0 0 0 0 0 0 0 0 0 0 0 0 0 0 0 0 0 0-1 0 0 0 0 0 0 0 0 0 0 0 0 0 0 0 0 0 0 0 0 1 0 1 0 0 0 0 0 0 0 5-5 8-11 11-17 3-7 4-14 4-22v-335c0-31-25-56-55-56s-56 25-56 56v200l-464-464c-11-10-25-16-40-16z" horiz-adv-x="1000" />

<glyph glyph-name="eye-65" unicode="&#xe8c0;" d="M594 350c0-52-42-94-94-94s-94 42-94 94 42 94 94 94 94-42 94-94z m285-60c-84-138-225-221-379-221s-295 83-379 221c-22 37-22 83 0 120 84 138 225 221 379 221s295-83 379-221c22-37 22-83 0-120z m-223 60c0 86-70 156-156 156s-156-70-156-156 70-156 156-156 156 70 156 156z" horiz-adv-x="1000" />

<glyph glyph-name="eye-1" unicode="&#xe8c1;" d="M500 683c-214 0-400-134-500-333 100-199 286-333 500-333s400 134 500 333c-100 199-286 333-500 333z m0-541c-115 0-208 93-208 208s93 208 208 208 208-93 208-208-93-208-208-208z" horiz-adv-x="1000" />

<glyph glyph-name="tag-3" unicode="&#xe8c2;" d="M581 850h-451c-72 0-130-58-130-130v-870l244 326c4 5 9 7 15 7s12-2 15-7l245-326v870c0 51 22 98 62 130z m0 0m104 0c-71 0-129-58-129-130v-277h259v277c0 72-58 130-130 130z m0 0" horiz-adv-x="1000" />

<glyph glyph-name="copy-2" unicode="&#xe8c3;" d="M365 38c-98 0-177 79-177 177v427h-73c-64 0-115-52-115-115v-562c0-64 51-115 115-115h520c64 0 115 51 115 115v73z m0 0m552 697c0 64-52 115-115 115h-437c-64 0-115-51-115-115v-520c0-64 51-115 115-115h437c63 0 115 51 115 115z m0 0" horiz-adv-x="1000" />

<glyph glyph-name="filter5" unicode="&#xe8c4;" d="M556 286v-228a46 46 0 0 0-32-44l-185-62a46 46 0 0 0-61 44v290a46 46 0 0 1-11 30l-211 252a46 46 0 0 0-10 30v122a46 46 0 0 0 46 47h650a46 46 0 0 0 46-47v-122a46 46 0 0 0-11-30l-210-252a46 46 0 0 1-11-30z m361 64h-125a42 42 0 0 0 0 83h125a42 42 0 0 0 0-83z m0-167h-250a42 42 0 0 0 0 84h250a42 42 0 0 0 0-84z m0-166h-250a42 42 0 0 0 0 83h250a42 42 0 0 0 0-83z" horiz-adv-x="1000" />

<glyph glyph-name="filter46" unicode="&#xe8c5;" d="M656 506h219c17 0 31 14 31 32s-14 31-31 31h-219c-17 0-31-14-31-31s14-32 31-32z m-531 0h109v-31c0-43 35-78 79-78h156c43 0 78 35 78 78v125c0 43-35 78-78 78h-156c-44 0-79-35-79-78v-31h-109c-17 0-31-14-31-31s14-32 31-32z m219-312h-219c-17 0-31-14-31-31s14-32 31-32h219c17 0 31 14 31 32s-14 31-31 31z m531 0h-109v31c0 43-35 78-78 78h-157c-43 0-78-35-78-78v-125c0-43 35-78 78-78h157c43 0 78 35 78 78v31h109c17 0 31 14 31 32s-14 31-31 31z" horiz-adv-x="1000" />

<glyph glyph-name="copy" unicode="&#xe8c6;" d="M458 38h238a166 166 0 0 0-154-105h-292a167 167 0 0 0-167 167v333a167 167 0 0 0 146 166v-332c0-127 103-229 229-229z m355 552h88a68 68 0 0 1-9 10l-142 142a48 48 0 0 1-10 8v-87a73 73 0 0 1 73-73z m0-63a136 136 0 0 0-136 136v104h-219a167 167 0 0 1-166-167v-333a167 167 0 0 1 166-167h292a167 167 0 0 1 167 167v260z" horiz-adv-x="1000" />

<glyph glyph-name="credit-card" unicode="&#xe8c7;" d="M1000 532v52c0 61-49 110-109 110h-782c-60 0-109-49-109-110v-52c0-6 4-10 10-10h980c6 0 10 4 10 10z m-1000-82v-334c0-61 49-110 109-110h782c60 0 109 49 109 110v334c0 5-4 9-10 9h-980c-6 0-10-4-10-9z m250-256c0-17-14-31-31-31h-31c-18 0-32 14-32 31v31c0 17 14 31 32 31h31c17 0 31-14 31-31z" horiz-adv-x="1000" />

<glyph glyph-name="gps" unicode="&#xe8c8;" d="M399 45c-96 31-173 108-204 204-11 32-16 66-17 99 1 1 1 1 1 2 0 16-13 28-29 28h-87c-16 0-29-12-29-28s13-28 29-28h60c3-31 9-61 18-90 38-114 128-204 241-241 3-1 6-1 9-1 11 0 22 7 26 19 5 15-3 31-18 36z m539 333h-61c-2 31-8 61-18 90-37 114-127 204-241 241-14 5-30-3-35-18-5-15 3-31 18-35 96-32 173-109 205-205 10-32 15-65 16-99 0 0 0-1 0-2 0-15 12-28 28-28h88c15 0 28 13 28 28s-13 28-28 28z m-97-111c-15 5-31-3-35-18-32-96-109-173-205-204-32-11-65-16-99-16-16 1-30-12-30-29v-88c0-15 12-28 28-28s28 13 28 28v61c31 2 61 8 90 18 113 37 203 127 241 241 5 15-3 31-18 35z m-682 166c3-1 6-2 9-2 12 0 23 8 27 20 31 96 108 173 204 205 32 10 66 15 99 16 16-1 30 11 30 28v88c0 15-12 28-28 28s-28-13-28-28v-61c-31-2-61-8-90-18-113-37-203-127-241-241-5-15 3-30 18-35z" horiz-adv-x="1000" />

<glyph glyph-name="paper-clip" unicode="&#xe8c9;" d="M872 784c-88 88-232 88-321 0l-397-398c-123-122-123-322 0-444s322-123 444 0l168 168c20 20 20 52 0 72-20 21-53 21-73 0l-168-167c-82-83-216-83-298 0s-83 216 0 299l397 397c48 48 127 48 175 0s48-127 0-175l-376-376c-14-14-37-14-51 0s-14 37 0 51l266 266c20 20 20 53 0 73-20 20-53 20-73 0l-266-266c-54-54-54-143 0-197s143-54 197 0l376 376c88 89 88 232 0 321z" horiz-adv-x="1000" />

<glyph glyph-name="team-leader" unicode="&#xe8ca;" d="M176 495c-65 0-117 52-117 117s52 117 117 117 117-53 117-117-53-117-117-117z m648 0c-64 0-117 52-117 117s53 117 117 117 117-53 117-117-52-117-117-117z m-324 62c-81 0-146 66-146 147s65 146 146 146 147-66 147-146-66-147-147-147z m29-3v-202c0-16-13-29-29-29s-29 13-29 29v202c-99-14-176-99-176-202v-176c0-16 13-29 29-29h66l22-270c2-15 14-27 29-27h118c15 0 28 12 29 27l22 270h66c16 0 29 13 29 29v176c0 103-77 188-176 202z m-295-382v176c0 44 12 85 31 121-26 16-56 26-89 26-97 0-176-79-176-176v-147c0-16 13-29 29-29h32l27-267c2-15 14-26 29-26h117c15 0 28 11 30 26l21 217c-30 14-51 44-51 79z m766 147c0 97-79 176-176 176-33 0-63-10-89-26 19-36 31-77 31-121v-176c0-35-21-65-51-79l22-217c1-15 14-26 29-26h117c15 0 28 11 29 26l27 267h32c16 0 29 13 29 29z" horiz-adv-x="1000" />

<glyph glyph-name="cursor" unicode="&#xe8cb;" d="M919 437v-401c0-103-84-186-187-186h-275c-83 0-160 44-201 116l-164 284c-7 12-10 26-10 40 0 27 14 54 40 69 34 20 77 12 102-20l99-124v561c0 42 35 76 78 74 41-2 71-38 71-79v-433c0-11 9-20 20-20 11 0 20 9 20 20v243c11 6 24 10 38 9 41-2 71-38 71-79v-173c0-11 9-20 20-20 11 0 20 9 20 20v207c11 6 24 9 38 8 40-2 71-38 71-79v-136c0-11 8-20 20-20 11 0 20 9 20 20v170c11 6 24 9 38 8 40-2 71-38 71-79z" horiz-adv-x="1000" />

<glyph glyph-name="up-open-mini" unicode="&#xe8cc;" d="M62 230q-26-22-50 0-24 24 0 50l196 190q26 26 48 0l196-190q24-26 0-50-24-22-50 0l-170 158z" horiz-adv-x="464" />

<glyph glyph-name="down-open-mini" unicode="&#xe8cd;" d="M405 470q22 26 48 0 26-22 0-48l-196-192q-22-22-48 0l-196 192q-26 26 0 48 24 24 50 0l170-156z" horiz-adv-x="466" />

<glyph glyph-name="chart-bar" unicode="&#xe8ce;" d="M521 740l0-625-208 0 0 625q0 44 30 74t73 31q44 0 75-31t30-74z m260-207l0-418-208 0 0 418q0 42 30 73t75 30q42 0 73-30t30-73z m-521-157l0-261-207 0 0 261q0 43 30 73t73 31 74-31 30-73z m521-417q22 0 37-15t16-37-16-36-37-16l-728 0q-22 0-37 16t-16 36 16 37 37 15l728 0z" horiz-adv-x="834" />

<glyph glyph-name="right-open-1" unicode="&#xe8cf;" d="M31 684q30 31 74 31t74-31l335-334-335-334q-31-31-74-31t-74 31-31 74 31 74l188 186-188 186q-31 32-31 74t31 74z" horiz-adv-x="514" />

<glyph glyph-name="trash" unicode="&#xe8d0;" d="M688 685l223 0 0-111-112 0 0-502q0-69-48-119t-119-50l-334 0q-70 0-119 50t-49 119l0 502-112 0 0 111 223 0q0 46 33 79t79 33l223 0q46 0 79-33t33-79z m-335-558q24 0 40 17t16 40-16 39-40 16-39-16-16-39q0-24 16-41t39-16z m0 224q24 0 40 16t16 40-16 39-40 16-39-16-16-39q0-24 16-40t39-16z m223-224q24 0 40 17t16 40-16 39-40 16-39-16-16-39q0-24 16-41t39-16z m0 224q24 0 40 16t16 40-16 39-40 16-39-16-16-39q0-24 16-40t39-16z" horiz-adv-x="928" />

<glyph glyph-name="calendar-inv" unicode="&#xe8d1;" d="M744 685l167 0 0-782-893 0 0 782 168 0 0-56q0-46 33-79t79-33 78 33 33 79l0 56 112 0 0-56q0-46 33-79t79-33 78 33 33 79l0 56z m-446-669l0 111-112 0 0-111 112 0z m0 223l0 112-112 0 0-112 112 0z m223-223l0 111-112 0 0-111 112 0z m0 223l0 112-112 0 0-112 112 0z m111-223l112 111-112 0 0-111z m112 223l0 112-112 0 0-112 112 0z m-503 391l0 112q0 23 17 39t40 16 40-16 15-39l0-112q0-24-16-40t-39-16q-24 0-40 16t-17 40z m335 0l0 112q0 23 16 39t40 16q23 0 40-16t16-39l0-112q0-24-16-40t-39-16-40 16-17 40z" horiz-adv-x="928" />

<glyph glyph-name="trash-1" unicode="&#xe8d2;" d="M0 633l0 141 289 0 0 76 246 0 0-76 289 0 0-141-824 0z m43-783l0 676 738 0 0-676-738 0z" horiz-adv-x="824" />

<glyph glyph-name="comment-1" unicode="&#xe8d3;" d="M0 96l0 713 1000 0 0-713-473 0-320-205 0 205-207 0z" horiz-adv-x="1000" />

<glyph glyph-name="picture" unicode="&#xe8d4;" d="M0-68l0 836 1000 0 0-836-1000 0z m76 78l848 0 0 680-848 0 0-680z m90 80l0 59 150 195 102-86 193 291 223-228 0-231-668 0z m0 416q0 37 24 62t62 24q33 0 58-24t24-62q0-33-24-57t-58-25q-37 0-62 25t-24 57z" horiz-adv-x="1000" />

<glyph glyph-name="th-list-1" unicode="&#xe8d5;" d="M0-150l0 250 250 0 0-250-250 0z m0 375l0 250 250 0 0-250-250 0z m0 375l0 250 250 0 0-250-250 0z m391-750l0 250 609 0 0-250-609 0z m0 375l0 250 609 0 0-250-609 0z m0 375l0 250 609 0 0-250-609 0z" horiz-adv-x="1000" />

</font>
</defs>
</svg>
